<?xml version="1.0" encoding="utf-8"?>
<!-- Generator: Adobe Illustrator 27.5.0, SVG Export Plug-In . SVG Version: 6.00 Build 0)  -->
<svg version="1.1" xmlns="http://www.w3.org/2000/svg" xmlns:xlink="http://www.w3.org/1999/xlink" x="0px" y="0px"
	 viewBox="0 0 750 500" style="enable-background:new 0 0 750 500;" xml:space="preserve">
<g id="Background_Complete">
	<g>
		<rect x="209.96" y="254.18" style="fill:#E0E0E0;" width="18.206" height="63.827"/>
		<g>
			<g>
				<g>
					<g>
						<g>
							<path style="fill:#E0E0E0;" d="M277.92,259.603c0,0-0.775-0.515,0.93-2.748c1.705-2.234-0.93-3.436-0.93-3.436
								c-7.439,4.295-17.824,0-17.824,0s12.244-3.779,13.794-7.387c1.158-2.695-0.884-2.993-1.991-2.971
								c1.25-0.13,3.956-0.573,4.781-2.01c1.085-1.89-3.176-4.123-3.176-4.123s0.697-1.031,0-2.92
								c-0.697-1.89-16.662-4.638-16.662-4.638c4.65,0.516,6.355-4.123,6.355-4.123s7.904,0.172,9.764-2.92
								c1.86-3.092-1.24-3.951-6.51-6.528c-5.27-2.577-16.894-12.197-16.894-12.197s7.285-0.688,9.299-2.406
								c2.015-1.718,0.155-2.061,0.155-2.061c8.68,0.859,5.735-3.779,5.735-3.779c-11.624-3.608-17.824-11.51-17.824-11.51
								s5.425-1.203,8.215-3.779c2.79-2.577-2.325-3.264-2.325-3.264s10.23-1.375,4.34-5.154
								c-4.477-2.873-11.638-6.737-13.865-7.898c2.44,0.897,7.975-0.176,7.975-0.176c6.51-2.92,0-7.215,0-7.215
								c-7.594-4.294-18.754-15.117-18.754-15.117s5.58,2.92,8.37,2.061c2.79-0.859-3.1-4.295-3.1-4.295s2.945,0.859,4.185,0
								c1.24-0.859-3.255-4.81-3.255-4.81c-6.681-4.341-14.918-15.735-18.363-20.629c-3.445,4.894-11.682,16.288-18.363,20.629
								c0,0-4.494,3.951-3.255,4.81c1.24,0.859,4.184,0,4.184,0s-5.889,3.436-3.1,4.295c2.79,0.859,8.369-2.061,8.369-2.061
								s-11.159,10.822-18.754,15.117c0,0-6.51,4.295,0,7.215c0,0,5.535,1.073,7.975,0.176c-2.226,1.161-9.388,5.025-13.864,7.898
								c-5.89,3.779,4.339,5.154,4.339,5.154s-5.115,0.687-2.325,3.264c2.79,2.577,8.214,3.779,8.214,3.779
								s-6.199,7.902-17.824,11.51c0,0-2.945,4.638,5.735,3.779c0,0-1.86,0.344,0.155,2.061c2.015,1.718,9.3,2.406,9.3,2.406
								s-11.624,9.62-16.894,12.197c-5.27,2.576-8.369,3.435-6.51,6.528c1.86,3.092,9.765,2.92,9.765,2.92s1.705,4.638,6.354,4.123
								c0,0-15.965,2.749-16.662,4.638c-0.697,1.89,0,2.92,0,2.92s-4.262,2.233-3.177,4.123c0.825,1.437,3.531,1.88,4.781,2.01
								c-1.108-0.022-3.148,0.277-1.991,2.971c1.55,3.607,13.794,7.387,13.794,7.387s-10.384,4.295-17.824,0
								c0,0-2.635,1.202-0.93,3.436c1.705,2.233,0.93,2.748,0.93,2.748s-3.875-2.92-2.17,1.546
								c1.704,4.467,10.694,7.215,10.694,7.215s-5.115,0.859-3.565,3.608c1.55,2.749,8.06,6.013,15.189,6.7
								c7.129,0.687,16.739-1.889,16.739-1.889s-6.51,3.435-2.015,5.325c4.495,1.89,9.609-2.405,9.609-2.405s-0.93,4.396,2.79,2.885
								c3.72-1.511,6.82-4.432,6.82-4.432s1.161,6.479,3.484,4.929c2.323,1.55,3.484-4.929,3.484-4.929s3.1,2.92,6.82,4.432
								c3.72,1.511,2.79-2.885,2.79-2.885s5.115,4.295,9.609,2.405c4.495-1.89-2.015-5.325-2.015-5.325s9.609,2.577,16.739,1.889
								c7.129-0.687,13.639-3.951,15.189-6.7c1.55-2.749-3.565-3.608-3.565-3.608s8.99-2.748,10.695-7.215
								C281.795,256.682,277.92,259.603,277.92,259.603z"/>
						</g>
					</g>
				</g>
			</g>
		</g>
	</g>
	<g>
		<g>
			<g>
				<g>
					<g>
						<polyline style="fill:#EBEBEB;" points="116.014,242.354 94.362,242.354 94.362,318.261 116.014,318.261 						"/>
					</g>
				</g>
			</g>
		</g>
		<g>
			<g>
				<g>
					<g>
						<g>
							<path style="fill:#EBEBEB;" d="M175.185,248.803c0,0-0.921-0.613,1.106-3.269c2.028-2.656-1.106-4.086-1.106-4.086
								c-8.848,5.108-21.197,0-21.197,0s14.562-4.495,16.405-8.785c1.377-3.205-1.051-3.559-2.368-3.534
								c1.486-0.155,4.705-0.682,5.685-2.391c1.291-2.248-3.777-4.904-3.777-4.904s0.828-1.226,0-3.473
								c-0.829-2.247-19.816-5.516-19.816-5.516c5.53,0.613,7.558-4.903,7.558-4.903s9.4,0.204,11.612-3.473
								c2.212-3.678-1.475-4.699-7.742-7.763c-6.267-3.064-20.091-14.505-20.091-14.505s8.663-0.818,11.059-2.861
								c2.396-2.043,0.185-2.451,0.185-2.451c10.322,1.021,6.82-4.494,6.82-4.494c-13.825-4.291-21.198-13.688-21.198-13.688
								s6.452-1.43,9.77-4.495c3.318-3.064-2.765-3.881-2.765-3.881s12.166-1.635,5.161-6.129
								c-5.324-3.416-13.841-8.012-16.489-9.393c2.902,1.066,9.485-0.21,9.485-0.21c7.742-3.473,0-8.581,0-8.581
								c-9.032-5.107-22.303-17.978-22.303-17.978s6.636,3.473,9.954,2.451c3.318-1.021-3.687-5.108-3.687-5.108
								s3.502,1.021,4.977,0c1.474-1.022-3.871-5.72-3.871-5.72c-7.946-5.163-17.741-18.714-21.839-24.534
								c-4.097,5.82-13.893,19.371-21.839,24.534c0,0-5.345,4.698-3.871,5.72c1.475,1.021,4.977,0,4.977,0s-7.004,4.086-3.686,5.108
								c3.318,1.022,9.954-2.451,9.954-2.451s-13.272,12.871-22.303,17.978c0,0-7.742,5.108,0,8.581c0,0,6.582,1.276,9.484,0.21
								c-2.647,1.381-11.165,5.976-16.488,9.393c-7.005,4.494,5.161,6.129,5.161,6.129s-6.083,0.817-2.764,3.881
								c3.318,3.064,9.769,4.495,9.769,4.495s-7.373,9.398-21.198,13.688c0,0-3.502,5.516,6.82,4.494c0,0-2.212,0.408,0.184,2.451
								c2.396,2.043,11.06,2.861,11.06,2.861s-13.824,11.441-20.092,14.505c-6.267,3.064-9.953,4.086-7.742,7.763
								c2.212,3.677,11.613,3.473,11.613,3.473s2.028,5.516,7.557,4.903c0,0-18.986,3.269-19.815,5.516
								c-0.829,2.247,0,3.473,0,3.473s-5.068,2.656-3.778,4.904c0.981,1.709,4.2,2.236,5.686,2.391
								c-1.318-0.026-3.744,0.329-2.368,3.534c1.843,4.29,16.405,8.785,16.405,8.785s-12.35,5.108-21.197,0
								c0,0-3.134,1.43-1.106,4.086c2.028,2.656,1.106,3.269,1.106,3.269s-4.608-3.473-2.58,1.838
								c2.027,5.312,12.718,8.581,12.718,8.581s-6.083,1.022-4.24,4.29c1.843,3.269,9.585,7.15,18.064,7.968
								c8.479,0.817,19.907-2.247,19.907-2.247s-7.742,4.085-2.397,6.333c5.346,2.247,11.428-2.86,11.428-2.86
								s-1.106,5.229,3.318,3.432c4.424-1.798,8.11-5.27,8.11-5.27s1.381,7.705,4.143,5.862c2.763,1.843,4.144-5.862,4.144-5.862
								s3.687,3.473,8.11,5.27c4.424,1.797,3.318-3.432,3.318-3.432s6.083,5.107,11.428,2.86c5.345-2.247-2.396-6.333-2.396-6.333
								s11.428,3.064,19.907,2.247c8.479-0.817,16.22-4.699,18.064-7.968c1.843-3.269-4.24-4.29-4.24-4.29
								s10.691-3.268,12.719-8.581C179.793,245.33,175.185,248.803,175.185,248.803z"/>
						</g>
					</g>
				</g>
			</g>
		</g>
	</g>
	<g>
		<g>
			<g>
				<g>
					<g>
						<polyline style="fill:#EBEBEB;" points="397.817,242.354 376.165,242.354 376.165,318.261 397.817,318.261 						"/>
					</g>
				</g>
			</g>
		</g>
		<g>
			<g>
				<g>
					<g>
						<g>
							<path style="fill:#EBEBEB;" d="M456.987,248.803c0,0-0.921-0.613,1.106-3.269c2.027-2.656-1.106-4.086-1.106-4.086
								c-8.848,5.108-21.197,0-21.197,0s14.562-4.495,16.405-8.785c1.377-3.205-1.051-3.559-2.368-3.534
								c1.486-0.155,4.705-0.682,5.685-2.391c1.291-2.248-3.777-4.904-3.777-4.904s0.828-1.226,0-3.473
								c-0.829-2.247-19.816-5.516-19.816-5.516c5.53,0.613,7.558-4.903,7.558-4.903s9.4,0.204,11.612-3.473
								c2.212-3.678-1.474-4.699-7.742-7.763c-6.267-3.064-20.091-14.505-20.091-14.505s8.663-0.818,11.059-2.861
								c2.396-2.043,0.185-2.451,0.185-2.451c10.322,1.021,6.82-4.494,6.82-4.494c-13.824-4.291-21.198-13.688-21.198-13.688
								s6.451-1.43,9.77-4.495c3.318-3.064-2.765-3.881-2.765-3.881s12.166-1.635,5.161-6.129
								c-5.324-3.416-13.841-8.012-16.489-9.393c2.902,1.066,9.485-0.21,9.485-0.21c7.742-3.473,0-8.581,0-8.581
								c-9.032-5.107-22.303-17.978-22.303-17.978s6.636,3.473,9.954,2.451c3.318-1.021-3.687-5.108-3.687-5.108
								s3.502,1.021,4.977,0c1.475-1.022-3.871-5.72-3.871-5.72c-7.946-5.163-17.741-18.714-21.839-24.534
								c-4.097,5.82-13.893,19.371-21.839,24.534c0,0-5.345,4.698-3.871,5.72c1.475,1.021,4.977,0,4.977,0s-7.004,4.086-3.686,5.108
								c3.318,1.022,9.953-2.451,9.953-2.451s-13.271,12.871-22.303,17.978c0,0-7.742,5.108,0,8.581c0,0,6.583,1.276,9.484,0.21
								c-2.647,1.381-11.165,5.976-16.488,9.393c-7.005,4.494,5.161,6.129,5.161,6.129s-6.083,0.817-2.764,3.881
								c3.318,3.064,9.769,4.495,9.769,4.495s-7.373,9.398-21.198,13.688c0,0-3.502,5.516,6.82,4.494c0,0-2.212,0.408,0.184,2.451
								c2.396,2.043,11.06,2.861,11.06,2.861s-13.824,11.441-20.092,14.505c-6.267,3.064-9.953,4.086-7.742,7.763
								c2.212,3.677,11.613,3.473,11.613,3.473s2.027,5.516,7.557,4.903c0,0-18.987,3.269-19.815,5.516
								c-0.829,2.247,0,3.473,0,3.473s-5.068,2.656-3.778,4.904c0.981,1.709,4.2,2.236,5.686,2.391
								c-1.318-0.026-3.744,0.329-2.368,3.534c1.843,4.29,16.405,8.785,16.405,8.785s-12.35,5.108-21.197,0
								c0,0-3.134,1.43-1.106,4.086c2.028,2.656,1.106,3.269,1.106,3.269s-4.608-3.473-2.58,1.838
								c2.027,5.312,12.718,8.581,12.718,8.581s-6.083,1.022-4.24,4.29c1.843,3.269,9.585,7.15,18.064,7.968
								c8.479,0.817,19.907-2.247,19.907-2.247s-7.742,4.085-2.397,6.333c5.346,2.247,11.428-2.86,11.428-2.86
								s-1.106,5.229,3.318,3.432c4.424-1.798,8.11-5.27,8.11-5.27s1.381,7.705,4.143,5.862c2.763,1.843,4.144-5.862,4.144-5.862
								s3.687,3.473,8.11,5.27c4.424,1.797,3.318-3.432,3.318-3.432s6.082,5.107,11.428,2.86c5.345-2.247-2.396-6.333-2.396-6.333
								s11.428,3.064,19.907,2.247c8.479-0.817,16.22-4.699,18.064-7.968c1.843-3.269-4.24-4.29-4.24-4.29
								s10.691-3.268,12.719-8.581C461.595,245.33,456.987,248.803,456.987,248.803z"/>
						</g>
					</g>
				</g>
			</g>
		</g>
	</g>
	<g>
		<rect x="498.048" y="266.343" style="fill:#EBEBEB;" width="14.429" height="50.586"/>
		<g>
			<g>
				<g>
					<g>
						<g>
							<path style="fill:#E0E0E0;" d="M551.909,270.641c0,0-0.614-0.408,0.737-2.178c1.351-1.77-0.737-2.723-0.737-2.723
								c-5.896,3.404-14.126,0-14.126,0s9.704-2.995,10.932-5.854c0.917-2.136-0.7-2.372-1.578-2.355
								c0.99-0.103,3.135-0.454,3.789-1.593c0.86-1.498-2.517-3.268-2.517-3.268s0.552-0.817,0-2.314
								c-0.552-1.498-13.206-3.676-13.206-3.676c3.685,0.409,5.036-3.268,5.036-3.268s6.265,0.136,7.739-2.314
								c1.474-2.451-0.983-3.132-5.159-5.174c-4.177-2.042-13.389-9.667-13.389-9.667s5.773-0.545,7.37-1.906
								c1.597-1.361,0.123-1.634,0.123-1.634c6.879,0.681,4.545-2.995,4.545-2.995c-9.213-2.859-14.127-9.122-14.127-9.122
								s4.299-0.953,6.511-2.995c2.211-2.042-1.843-2.587-1.843-2.587s8.108-1.089,3.44-4.085
								c-3.548-2.277-9.224-5.339-10.989-6.259c1.934,0.711,6.321-0.14,6.321-0.14c5.159-2.314,0-5.718,0-5.718
								c-6.019-3.404-14.864-11.981-14.864-11.981s4.422,2.314,6.633,1.634c2.211-0.681-2.457-3.404-2.457-3.404
								s2.334,0.681,3.317,0c0.983-0.681-2.58-3.812-2.58-3.812c-5.295-3.441-11.823-12.471-14.554-16.35
								c-2.731,3.879-9.258,12.909-14.554,16.35c0,0-3.562,3.131-2.58,3.812c0.983,0.681,3.317,0,3.317,0s-4.668,2.723-2.457,3.404
								c2.211,0.681,6.633-1.634,6.633-1.634s-8.844,8.577-14.863,11.981c0,0-5.159,3.404,0,5.718c0,0,4.387,0.85,6.32,0.14
								c-1.764,0.92-7.44,3.983-10.988,6.259c-4.668,2.995,3.439,4.085,3.439,4.085s-4.053,0.545-1.842,2.587
								c2.211,2.042,6.51,2.995,6.51,2.995s-4.913,6.263-14.127,9.122c0,0-2.334,3.676,4.545,2.995c0,0-1.474,0.272,0.123,1.634
								c1.597,1.362,7.37,1.906,7.37,1.906s-9.213,7.624-13.389,9.667c-4.177,2.042-6.633,2.723-5.159,5.174
								c1.474,2.451,7.739,2.314,7.739,2.314s1.351,3.676,5.036,3.268c0,0-12.653,2.178-13.205,3.676c-0.553,1.498,0,2.314,0,2.314
								s-3.378,1.77-2.518,3.268c0.654,1.139,2.799,1.49,3.789,1.593c-0.878-0.017-2.495,0.219-1.578,2.355
								c1.228,2.859,10.933,5.854,10.933,5.854s-8.23,3.404-14.126,0c0,0-2.088,0.953-0.737,2.723
								c1.351,1.77,0.737,2.178,0.737,2.178s-3.071-2.314-1.72,1.225c1.351,3.54,8.476,5.718,8.476,5.718s-4.054,0.681-2.826,2.859
								c1.228,2.178,6.388,4.765,12.038,5.31c5.651,0.545,13.267-1.497,13.267-1.497s-5.159,2.723-1.597,4.22
								c3.563,1.498,7.616-1.906,7.616-1.906s-0.737,3.484,2.211,2.287c2.948-1.198,5.405-3.512,5.405-3.512
								s0.921,5.135,2.761,3.907c1.841,1.228,2.762-3.907,2.762-3.907s2.457,2.314,5.405,3.512c2.948,1.198,2.211-2.287,2.211-2.287
								s4.054,3.404,7.616,1.906c3.562-1.498-1.597-4.22-1.597-4.22s7.616,2.042,13.266,1.497c5.651-0.545,10.81-3.132,12.038-5.31
								c1.228-2.178-2.826-2.859-2.826-2.859s7.125-2.178,8.476-5.718C554.98,268.326,551.909,270.641,551.909,270.641z"/>
						</g>
					</g>
				</g>
			</g>
		</g>
	</g>
	<g>
		<rect x="285.776" y="266.343" style="fill:#EBEBEB;" width="14.429" height="50.586"/>
		<g>
			<g>
				<g>
					<g>
						<g>
							<path style="fill:#E0E0E0;" d="M339.638,270.641c0,0-0.614-0.408,0.737-2.178c1.351-1.77-0.737-2.723-0.737-2.723
								c-5.896,3.404-14.126,0-14.126,0s9.704-2.995,10.932-5.854c0.917-2.136-0.7-2.372-1.578-2.355
								c0.99-0.103,3.135-0.454,3.789-1.593c0.86-1.498-2.517-3.268-2.517-3.268s0.552-0.817,0-2.314
								c-0.552-1.498-13.206-3.676-13.206-3.676c3.685,0.409,5.037-3.268,5.037-3.268s6.265,0.136,7.739-2.314
								c1.474-2.451-0.983-3.132-5.159-5.174c-4.177-2.042-13.389-9.667-13.389-9.667s5.773-0.545,7.37-1.906
								c1.597-1.361,0.123-1.634,0.123-1.634c6.879,0.681,4.545-2.995,4.545-2.995c-9.213-2.859-14.127-9.122-14.127-9.122
								s4.299-0.953,6.511-2.995c2.211-2.042-1.843-2.587-1.843-2.587s8.108-1.089,3.44-4.085
								c-3.548-2.277-9.224-5.339-10.989-6.259c1.934,0.711,6.321-0.14,6.321-0.14c5.159-2.314,0-5.718,0-5.718
								c-6.019-3.404-14.863-11.981-14.863-11.981s4.422,2.314,6.633,1.634c2.211-0.681-2.457-3.404-2.457-3.404
								s2.334,0.681,3.317,0c0.983-0.681-2.58-3.812-2.58-3.812c-5.295-3.441-11.823-12.471-14.554-16.35
								c-2.73,3.879-9.258,12.909-14.554,16.35c0,0-3.562,3.131-2.579,3.812c0.983,0.681,3.316,0,3.316,0s-4.668,2.723-2.457,3.404
								c2.211,0.681,6.633-1.634,6.633-1.634s-8.845,8.577-14.863,11.981c0,0-5.159,3.404,0,5.718c0,0,4.387,0.85,6.32,0.14
								c-1.764,0.92-7.44,3.983-10.988,6.259c-4.668,2.995,3.439,4.085,3.439,4.085s-4.053,0.545-1.842,2.587
								c2.211,2.042,6.51,2.995,6.51,2.995s-4.913,6.263-14.127,9.122c0,0-2.334,3.676,4.545,2.995c0,0-1.474,0.272,0.123,1.634
								c1.597,1.362,7.371,1.906,7.371,1.906s-9.213,7.624-13.389,9.667c-4.177,2.042-6.633,2.723-5.159,5.174
								c1.474,2.451,7.739,2.314,7.739,2.314s1.351,3.676,5.036,3.268c0,0-12.653,2.178-13.205,3.676c-0.553,1.498,0,2.314,0,2.314
								s-3.378,1.77-2.518,3.268c0.654,1.139,2.799,1.49,3.789,1.593c-0.878-0.017-2.495,0.219-1.578,2.355
								c1.228,2.859,10.933,5.854,10.933,5.854s-8.23,3.404-14.126,0c0,0-2.088,0.953-0.737,2.723
								c1.351,1.77,0.737,2.178,0.737,2.178s-3.071-2.314-1.72,1.225c1.351,3.54,8.476,5.718,8.476,5.718s-4.054,0.681-2.826,2.859
								c1.228,2.178,6.388,4.765,12.038,5.31c5.651,0.545,13.267-1.497,13.267-1.497s-5.159,2.723-1.597,4.22
								c3.563,1.498,7.616-1.906,7.616-1.906s-0.737,3.484,2.211,2.287c2.948-1.198,5.405-3.512,5.405-3.512
								s0.921,5.135,2.761,3.907c1.841,1.228,2.762-3.907,2.762-3.907s2.457,2.314,5.405,3.512c2.948,1.198,2.211-2.287,2.211-2.287
								s4.054,3.404,7.616,1.906c3.562-1.498-1.597-4.22-1.597-4.22s7.616,2.042,13.266,1.497c5.651-0.545,10.81-3.132,12.038-5.31
								c1.228-2.178-2.826-2.859-2.826-2.859s7.125-2.178,8.476-5.718C342.708,268.326,339.638,270.641,339.638,270.641z"/>
						</g>
					</g>
				</g>
			</g>
		</g>
	</g>
	<g>
		<rect x="625.195" y="253.147" style="fill:#EBEBEB;" width="18.196" height="63.791"/>
		<g>
			<g>
				<g>
					<g>
						<g>
							<path style="fill:#EBEBEB;" d="M693.117,258.566c0,0-0.774-0.515,0.929-2.747c1.704-2.232-0.929-3.434-0.929-3.434
								c-7.435,4.292-17.814,0-17.814,0s12.237-3.777,13.786-7.383c1.157-2.693-0.883-2.991-1.99-2.97
								c1.249-0.13,3.954-0.573,4.778-2.009c1.085-1.889-3.174-4.121-3.174-4.121s0.696-1.03,0-2.919
								c-0.697-1.889-16.653-4.636-16.653-4.636c4.647,0.515,6.351-4.121,6.351-4.121s7.9,0.172,9.759-2.919
								c1.859-3.091-1.239-3.949-6.506-6.524c-5.267-2.575-16.885-12.19-16.885-12.19s7.281-0.687,9.294-2.404
								c2.014-1.717,0.155-2.06,0.155-2.06c8.675,0.859,5.732-3.777,5.732-3.777c-11.618-3.606-17.814-11.503-17.814-11.503
								s5.422-1.202,8.21-3.777c2.788-2.575-2.324-3.262-2.324-3.262s10.224-1.374,4.337-5.151
								c-4.474-2.871-11.632-6.733-13.857-7.894c2.439,0.896,7.971-0.176,7.971-0.176c6.506-2.918,0-7.211,0-7.211
								c-7.59-4.292-18.743-15.108-18.743-15.108s5.577,2.919,8.365,2.06c2.788-0.858-3.098-4.292-3.098-4.292s2.943,0.858,4.183,0
								c1.239-0.858-3.253-4.807-3.253-4.807c-6.677-4.339-14.909-15.727-18.353-20.618c-3.443,4.891-11.675,16.279-18.353,20.618
								c0,0-4.492,3.949-3.253,4.807c1.239,0.858,4.182,0,4.182,0s-5.886,3.434-3.098,4.292c2.788,0.858,8.365-2.06,8.365-2.06
								s-11.153,10.816-18.743,15.108c0,0-6.506,4.292,0,7.211c0,0,5.532,1.072,7.97,0.176c-2.225,1.16-9.383,5.022-13.857,7.894
								c-5.887,3.777,4.337,5.151,4.337,5.151s-5.112,0.687-2.323,3.262c2.788,2.575,8.21,3.777,8.21,3.777
								s-6.196,7.898-17.814,11.503c0,0-2.943,4.635,5.731,3.777c0,0-1.859,0.343,0.155,2.06c2.014,1.717,9.294,2.404,9.294,2.404
								s-11.618,9.615-16.885,12.19c-5.267,2.575-8.365,3.434-6.506,6.524c1.859,3.09,9.759,2.919,9.759,2.919
								s1.704,4.636,6.351,4.121c0,0-15.956,2.747-16.652,4.636c-0.697,1.889,0,2.919,0,2.919s-4.259,2.232-3.175,4.121
								c0.825,1.436,3.529,1.879,4.778,2.009c-1.107-0.022-3.147,0.277-1.99,2.97c1.549,3.605,13.786,7.383,13.786,7.383
								s-10.379,4.292-17.814,0c0,0-2.634,1.202-0.93,3.434c1.704,2.232,0.93,2.747,0.93,2.747s-3.873-2.919-2.168,1.545
								c1.703,4.464,10.688,7.211,10.688,7.211s-5.112,0.858-3.563,3.606c1.549,2.747,8.055,6.009,15.181,6.696
								c7.125,0.687,16.73-1.888,16.73-1.888s-6.506,3.434-2.014,5.322c4.493,1.889,9.604-2.404,9.604-2.404
								s-0.929,4.394,2.788,2.884c3.718-1.511,6.816-4.429,6.816-4.429s1.161,6.476,3.482,4.926
								c2.322,1.549,3.482-4.926,3.482-4.926s3.098,2.919,6.816,4.429c3.717,1.51,2.788-2.884,2.788-2.884s5.112,4.292,9.604,2.404
								c4.492-1.888-2.014-5.322-2.014-5.322s9.604,2.575,16.729,1.888c7.126-0.687,13.631-3.949,15.18-6.696
								c1.549-2.747-3.563-3.606-3.563-3.606s8.984-2.747,10.689-7.211C696.989,255.648,693.117,258.566,693.117,258.566z"/>
						</g>
					</g>
				</g>
			</g>
		</g>
	</g>
	<g>
		<g>
			<g>
				<g>
					<path style="fill:#F5F5F5;" d="M676.033,84.202c0.605-4.394-5.596-8.008-10.255-8.383c-2.222-0.179-4.53,0.161-6.635-0.573
						c-4.56-1.589-6.382-7.481-10.832-9.358c-3.327-1.403-7.157-0.154-10.382,1.469c-3.225,1.623-6.412,3.666-10.016,3.897
						c-3.134,0.201-6.538-0.962-9.28,0.569c-2.044,1.141-3.114,3.495-4.997,4.885c-1.842,1.359-4.246,1.647-6.532,1.771
						c-2.286,0.124-4.653,0.147-6.735,1.101c-2.082,0.953-3.804,3.155-3.372,5.403L676.033,84.202z"/>
				</g>
			</g>
		</g>
	</g>
	<g>
		<g>
			<g>
				<g>
					<path style="fill:#F5F5F5;" d="M221.457,67.056c0.605-4.393-5.596-8.008-10.255-8.383c-2.222-0.179-4.53,0.161-6.635-0.573
						c-4.561-1.589-6.382-7.481-10.832-9.358c-3.327-1.403-7.157-0.154-10.382,1.469c-3.225,1.623-6.412,3.666-10.016,3.897
						c-3.134,0.201-6.538-0.962-9.28,0.569c-2.043,1.141-3.114,3.495-4.997,4.885c-1.842,1.359-4.246,1.647-6.532,1.771
						c-2.286,0.124-4.653,0.147-6.735,1.101c-2.082,0.953-3.804,3.154-3.372,5.403L221.457,67.056z"/>
				</g>
			</g>
		</g>
	</g>
	<g>
		<g>
			<g>
				<g>
					<path style="fill:#F5F5F5;" d="M480.376,69.25c0.605-4.393-5.596-8.008-10.255-8.383c-2.222-0.179-4.53,0.161-6.635-0.573
						c-4.56-1.589-6.382-7.481-10.832-9.358c-3.327-1.403-7.157-0.154-10.382,1.469c-3.225,1.623-6.412,3.666-10.016,3.897
						c-3.134,0.201-6.538-0.962-9.28,0.569c-2.043,1.141-3.114,3.495-4.997,4.884c-1.842,1.359-4.246,1.647-6.532,1.771
						c-2.286,0.124-4.653,0.147-6.735,1.101c-2.082,0.953-3.804,3.154-3.372,5.403L480.376,69.25z"/>
				</g>
			</g>
		</g>
	</g>
	<g>
		<g>
			<g>
				<g>
					<path style="fill:#F5F5F5;" d="M544.743,98.671c0.438-3.178-4.048-5.793-7.419-6.065c-1.607-0.13-3.277,0.116-4.8-0.415
						c-3.299-1.15-4.617-5.412-7.836-6.77c-2.407-1.015-5.177-0.111-7.511,1.063c-2.333,1.174-4.639,2.652-7.246,2.819
						c-2.267,0.145-4.73-0.696-6.713,0.412c-1.478,0.825-2.253,2.529-3.615,3.534c-1.333,0.983-3.072,1.191-4.726,1.281
						c-1.654,0.09-3.366,0.107-4.872,0.796c-1.506,0.69-2.752,2.282-2.439,3.909L544.743,98.671z"/>
				</g>
			</g>
		</g>
	</g>
</g>
<g id="Background_Simple" style="display:none;">
	<path style="display:inline;fill:#F5F5F5;" d="M223.218,97.704l1.297-2.996c10.937-25.254,34.576-42.824,61.773-44.829
		c3.496-0.258,7.012-0.263,10.517-0.003c25.236,1.874,49.117,17.477,61.225,40.002c7.121,13.247,10.786,29.124,22.178,38.849
		c14.827,12.657,36.691,10.11,55.777,6.875c19.086-3.235,40.973-5.728,55.745,6.995c9.251,7.968,13.57,20.514,14.596,32.749
		c2.716,32.39-15.734,64.225-42.263,82.437c-26.529,18.212-59.903,24.108-91.954,22.113c-44.9-2.795-89.775-21.264-119.888-55.183
		C222.108,190.795,208.785,140.772,223.218,97.704z"/>
	<circle style="display:inline;fill:#F5F5F5;" cx="654.214" cy="88.808" r="39.124"/>
	<circle style="display:inline;fill:#F5F5F5;" cx="68.382" cy="77.022" r="39.124"/>
</g>
<g id="Floor">
	<g>
		<path style="fill:#263238;" d="M713.299,318.261c0,0.144-152.574,0.26-340.739,0.26c-188.231,0-340.771-0.117-340.771-0.26
			c0-0.144,152.541-0.26,340.771-0.26C560.725,318.001,713.299,318.117,713.299,318.261z"/>
	</g>
</g>
<g id="Trees">
	<g>
		<g>
			<g>
				<g>
					<g>
						<rect x="138.692" y="259.316" style="fill:#6F4439;" width="20.42" height="58.945"/>
					</g>
				</g>
			</g>
		</g>
		<g>
			<g>
				<g>
					<g>
						<path style="fill:#455A64;" d="M71.471,259.087c0,0,1.005-0.666-1.206-3.554c-2.211-2.887,1.206-4.442,1.206-4.442
							c9.65,5.552,23.12,0,23.12,0s-15.883-4.886-17.893-9.55c-1.502-3.484,1.146-3.869,2.582-3.842
							c-1.621-0.168-5.131-0.741-6.201-2.599c-1.407-2.443,4.12-5.33,4.12-5.33s-0.904-1.333,0-3.776
							c0.904-2.443,21.613-5.997,21.613-5.997c-6.031,0.667-8.243-5.33-8.243-5.33s-10.253,0.222-12.665-3.776
							c-2.413-3.997,1.608-5.108,8.443-8.439c6.836-3.331,21.914-15.768,21.914-15.768s-9.449-0.889-12.062-3.109
							c-2.614-2.221-0.202-2.665-0.202-2.665c-11.258,1.11-7.438-4.886-7.438-4.886c15.078-4.664,23.119-14.88,23.119-14.88
							s-7.036-1.555-10.655-4.886c-3.619-3.331,3.016-4.22,3.016-4.22s-13.269-1.777-5.63-6.663
							c5.807-3.714,15.096-8.71,17.984-10.211c-3.165,1.16-10.344-0.227-10.344-0.227c-8.443-3.776,0-9.328,0-9.328
							c9.851-5.552,24.326-19.544,24.326-19.544s-7.238,3.775-10.856,2.665c-3.619-1.11,4.021-5.552,4.021-5.552s-3.82,1.11-5.428,0
							c-1.608-1.11,4.222-6.218,4.222-6.218c8.666-5.612,19.35-20.343,23.819-26.67c4.469,6.327,15.153,21.058,23.819,26.67
							c0,0,5.83,5.108,4.222,6.218c-1.608,1.11-5.428,0-5.428,0s7.639,4.442,4.021,5.552c-3.619,1.11-10.856-2.665-10.856-2.665
							s14.475,13.992,24.326,19.544c0,0,8.444,5.552,0,9.328c0,0-7.18,1.387-10.345,0.227c2.888,1.501,12.177,6.497,17.984,10.211
							c7.639,4.886-5.629,6.663-5.629,6.663s6.634,0.888,3.015,4.22c-3.618,3.331-10.655,4.886-10.655,4.886
							s8.041,10.216,23.12,14.88c0,0,3.82,5.996-7.439,4.886c0,0,2.413,0.444-0.201,2.665c-2.614,2.221-12.063,3.109-12.063,3.109
							s15.079,12.437,21.914,15.768c6.835,3.331,10.856,4.442,8.443,8.439c-2.412,3.998-12.665,3.776-12.665,3.776
							s-2.212,5.996-8.243,5.33c0,0,20.709,3.554,21.613,5.997c0.904,2.443,0,3.776,0,3.776s5.527,2.887,4.12,5.33
							c-1.071,1.858-4.581,2.431-6.201,2.599c1.437-0.028,4.084,0.358,2.583,3.842c-2.011,4.664-17.893,9.55-17.893,9.55
							s13.47,5.552,23.12,0c0,0,3.418,1.555,1.206,4.442c-2.212,2.887-1.206,3.554-1.206,3.554s5.026-3.776,2.815,1.999
							c-2.211,5.774-13.872,9.328-13.872,9.328s6.634,1.11,4.624,4.664c-2.01,3.554-10.454,7.773-19.702,8.662
							c-9.248,0.888-21.712-2.443-21.712-2.443s8.444,4.442,2.614,6.885c-5.83,2.443-12.465-3.109-12.465-3.109
							s1.206,5.684-3.618,3.73c-4.825-1.953-8.846-5.729-8.846-5.729s-1.506,8.377-4.519,6.372
							c-3.013,2.004-4.519-6.372-4.519-6.372s-4.021,3.776-8.846,5.729c-4.825,1.953-3.619-3.73-3.619-3.73
							s-6.634,5.552-12.464,3.109c-5.83-2.443,2.613-6.885,2.613-6.885s-12.464,3.332-21.712,2.443
							c-9.248-0.888-17.692-5.108-19.702-8.662c-2.011-3.553,4.624-4.664,4.624-4.664s-11.66-3.553-13.872-9.328
							C66.445,255.311,71.471,259.087,71.471,259.087z"/>
					</g>
				</g>
			</g>
		</g>
		<g>
			<g>
				<g>
					<g>
						<path d="M116.776,126.284c0.109-0.049,0.215-0.098,0.315-0.145C116.978,126.17,116.873,126.221,116.776,126.284z"/>
					</g>
				</g>
			</g>
		</g>
		<g style="opacity:0.1;">
			<g>
				<g>
					<g>
						<g>
							<path d="M131.922,103.509l4.79-1.874c0,0,2.644,3.928,7.654,1.339c5.01-2.589,7.676-7.677,7.676-7.677
								s7.03,4.642,7.757,1.696c0.727-2.946-2.206-4.107-2.206-4.107c0.235,0.516,0.464,1.154,0.18,1.639
								c-0.308,0.528-1.006,0.511-1.561,0.374c-1.838-0.452-3.539-1.559-4.787-3.116c-1.406,3.341-4.277,5.637-7.23,7.35
								c-1.292,0.749-2.772,1.432-4.171,0.978c-1.4-0.454-2.329-2.615-1.288-3.744c-2.208,2.898-5.505,4.751-8.925,5.018
								c-0.732,0.057-1.68-0.134-1.821-0.93c-0.083-0.467,0.175-0.918,0.436-1.297c1.038-1.511,2.317-2.821,3.759-3.85
								c-3.234,2.366-7.021,3.8-10.889,4.123l-3.404,0.456c-0.116,0.408-0.071,0.739,0.219,0.939c1.608,1.111,5.428,0,5.428,0
								s-7.639,4.442-4.021,5.552c3.619,1.11,10.856-2.665,10.856-2.665s-0.322,0.311-0.892,0.849L131.922,103.509z"/>
						</g>
					</g>
				</g>
			</g>
		</g>
		<g style="opacity:0.1;">
			<g>
				<g>
					<g>
						<g>
							<path d="M174.673,133.368l-9.288-3.35c0,0-1.042,5.653-6.729,5.339c0,0-4.928,0.419-5.307-5.339
								c0,0-4.739,4.606-14.311,3.245c0,0-1.611-0.209-1.232-2.826c0,0-2.559,3.246-6.918,0.942
								c-4.36-2.303-0.574-6.177-0.574-6.177l0.585-0.313c-0.402,0.77-0.797,1.703-0.456,2.508c0.487,1.147,1.979,1.066,3.082,0.718
								c3.049-0.961,5.929-2.575,8.432-4.726c-0.677,0.806-1.37,1.637-1.741,2.657c-0.371,1.02-0.357,2.288,0.297,3.118
								c0.638,0.81,1.695,1.011,2.666,1.065c4.809,0.269,9.686-1.95,12.929-5.882c0.047,1.489-0.313,2.966-0.258,4.454
								c0.055,1.488,0.693,3.127,1.979,3.574c1.527,0.532,3.087-0.901,3.761-2.505c0.674-1.604,0.824-3.436,1.544-5.015
								c2.272,2.249,5.007,3.924,7.937,4.861c0.827,0.265,1.693,0.472,2.543,0.325c0.85-0.147,1.686-0.717,1.984-1.609
								c0.258-0.77-0.024-1.749-0.644-2.148c3.725,1.689,12.339,4.694,14.037,0.496c0.901,1.811,0.708,4.01-3.311,5.807
								c0,0-7.18,1.387-10.344,0.227c0.543,0.283,1.314,0.69,2.246,1.188L174.673,133.368z"/>
						</g>
					</g>
				</g>
			</g>
		</g>
		<g style="opacity:0.1;">
			<g>
				<g>
					<g>
						<g>
							<path d="M109.984,160.671c2.392-0.367,4.719-1.251,6.801-2.604c0.624,1.84,2.689,2.659,4.443,2.333
								c1.753-0.326,3.263-1.51,4.703-2.661c1.277,1.856,3.326,3.036,5.435,3.131c2.108,0.095,4.237-0.898,5.646-2.634
								c5.869,4.325,12.841,7.513,19.845,6.574c1.294-0.174,2.674-0.551,3.506-1.66c0.832-1.109,0.71-3.132-0.502-3.664
								c4.277,0.921,8.723,1.84,12.948,0.661c4.225-1.179,7.633-4.689,6.721-10.174c-0.188,0.86-0.574,2.196-1.104,3.064
								c-0.531,0.868-1.486,1.272-2.393,1.578c-7.034,2.37-14.864,1.715-21.496-1.795c1.408,1.55,0.436,4.452-1.33,5.459
								c-1.767,1.008-3.889,0.691-5.847,0.313c-2.145-0.414-4.305-0.878-6.293-1.86c-1.987-0.982-3.812-2.536-4.817-4.67
								c-0.807,1.433-1.645,2.903-2.881,3.896c-1.235,0.993-2.98,1.407-4.302,0.559c-1.322-0.848-1.764-3.192-0.586-4.267
								c-2.837,1.764-5.935,3.014-9.133,3.684c-0.802,0.168-1.755,0.249-2.31-0.411c-0.558-0.663-0.389-1.789,0.145-2.476
								c0.203-0.26,0.443-0.473,0.705-0.655c-4.494,2.176-9.516,3.011-14.389,2.364l-0.067,0.888
								c3.67,2.139,8.246,3.151,8.246,3.151S111.104,159.521,109.984,160.671z"/>
						</g>
					</g>
				</g>
			</g>
		</g>
		<g style="opacity:0.1;">
			<g>
				<g>
					<g>
						<g>
							<path d="M187.922,191.168c-4.428-0.265-8.713-1.773-12.885-3.436c-7.159,5.175-17.117,5.122-24.229-0.131
								c-5.503,5.163-14.168,5.67-20.134,1.178c-3.169,1.463-6.637,2.619-10.007,1.882c-3.37-0.737-6.511-3.918-6.403-7.71
								c2.044,2.451,5.04,3.9,8.057,3.895c3.017-0.005,6.009-1.462,8.047-3.92c2.353,3.095,6.073,4.858,9.725,4.609
								c3.651-0.248,7.147-2.502,9.139-5.892c4.606,3.865,10.617,5.623,16.351,4.781c1.637-0.24,3.318-0.721,4.562-1.921
								c1.244-1.2,1.913-3.282,1.182-4.918c7.496,5.774,18.234,5.825,25.775,0.122l0.064,0.145c-0.137,0.357-0.475,0.807-1.14,1.372
								c-2.614,2.221-12.062,3.109-12.062,3.109s3.762,3.103,8.379,6.624C190.879,191.191,189.389,191.256,187.922,191.168z"/>
						</g>
					</g>
				</g>
			</g>
		</g>
		<g style="opacity:0.1;">
			<g>
				<g>
					<g>
						<g>
							<path d="M83.795,211.682c3.355,0.708,6.774,0.635,6.774,0.635s2.211,5.996,8.243,5.33c0,0-3.001,0.515-6.767,1.287
								c4.56,1.746,9.861,1.164,13.926-1.745c7.338,7.402,19.629,7.815,27.36,0.918c7.443,6.687,19.1,6.808,26.656,0.275
								c4.112,3.726,9.526,5.898,14.801,5.145c5.275-0.753,10.247-4.71,11.934-10.283c-8.22,5.846-19.877,4.967-27.302-2.058
								c-0.103,1.752-1.422,3.188-2.91,3.805c-1.488,0.616-3.125,0.573-4.713,0.492c-6.491-0.334-13.36-1.346-18.397-5.881
								c-3.21,4.196-8.335,6.505-13.286,5.986c-4.951-0.519-9.591-3.852-12.029-8.639c-9.117,4.754-20.238,4.519-29.184-0.617
								L83.795,211.682z"/>
						</g>
					</g>
				</g>
			</g>
		</g>
		<g style="opacity:0.1;">
			<g>
				<g>
					<g>
						<g>
							<path d="M124.393,241.073c-0.133,2.074,1.085,4.049,2.692,5.132c1.607,1.083,3.541,1.408,5.422,1.472
								c5.704,0.192,11.449-1.891,15.94-5.779c3.409,4.228,8.497,6.742,13.623,6.731c5.125-0.011,10.204-2.547,13.598-6.789
								c12.735,3.556,26.666,1.577,38.172-5.421l1.734,0.953c0.003,0.485-0.127,1.082-0.445,1.819
								c-2.011,4.664-17.893,9.55-17.893,9.55s1.611,0.664,4.117,1.303c-2.741,0.829-5.117,1.509-6.619,1.99
								c-5.602,1.793-12.161,0.763-16.364-3.704c-3.875,4.547-9.507,7.201-15.16,7.145c-5.653-0.056-11.241-2.823-15.041-7.446
								c-3.66,4.139-8.482,7.369-13.716,7.562c-5.234,0.193-10.75-3.296-12.167-8.866c-6.476,2.353-14.212-0.57-18.027-6.811
								C110.307,243.747,118.017,244.191,124.393,241.073z"/>
						</g>
					</g>
				</g>
			</g>
		</g>
	</g>
	<g>
		<g>
			<g>
				<g>
					<g>
						
							<rect x="568.245" y="275" transform="matrix(-1 -1.224647e-16 1.224647e-16 -1 1153.9296 593.2608)" style="fill:#6F4439;" width="17.439" height="43.262"/>
					</g>
				</g>
			</g>
		</g>
		<g>
			<g>
				<g>
					<g>
						<path style="fill:#455A64;" d="M643.091,274.803c0,0-0.858-0.569,1.03-3.035c1.889-2.466-1.03-3.793-1.03-3.793
							c-8.241,4.742-19.744,0-19.744,0s13.564-4.173,15.28-8.156c1.282-2.975-0.978-3.304-2.205-3.281
							c1.384-0.143,4.382-0.633,5.296-2.22c1.202-2.086-3.519-4.552-3.519-4.552s0.772-1.138,0-3.225
							c-0.772-2.086-18.457-5.121-18.457-5.121c5.151,0.569,7.039-4.552,7.039-4.552s8.756,0.189,10.816-3.225
							c2.06-3.414-1.374-4.362-7.211-7.207c-5.838-2.845-18.714-13.466-18.714-13.466s8.069-0.759,10.301-2.656
							c2.232-1.897,0.172-2.276,0.172-2.276c9.614,0.948,6.352-4.173,6.352-4.173c-12.876-3.983-19.744-12.708-19.744-12.708
							s6.009-1.328,9.1-4.173c3.091-2.845-2.576-3.604-2.576-3.604s11.332-1.518,4.808-5.69c-4.959-3.172-12.893-7.438-15.359-8.72
							c2.703,0.99,8.834-0.194,8.834-0.194c7.211-3.225,0-7.966,0-7.966c-8.413-4.741-20.774-16.69-20.774-16.69
							s6.181,3.224,9.271,2.276c3.09-0.948-3.434-4.742-3.434-4.742s3.262,0.948,4.635,0c1.374-0.948-3.605-5.311-3.605-5.311
							c-7.401-4.793-16.525-17.373-20.342-22.776c-3.816,5.404-12.94,17.984-20.341,22.776c0,0-4.979,4.362-3.605,5.311
							c1.373,0.948,4.635,0,4.635,0s-6.524,3.793-3.434,4.742c3.091,0.948,9.272-2.276,9.272-2.276s-12.362,11.949-20.775,16.69
							c0,0-7.211,4.742,0,7.966c0,0,6.131,1.184,8.834,0.194c-2.466,1.282-10.399,5.549-15.358,8.72
							c-6.524,4.173,4.807,5.69,4.807,5.69s-5.665,0.758-2.575,3.604c3.09,2.845,9.099,4.173,9.099,4.173
							s-6.867,8.725-19.745,12.708c0,0-3.262,5.121,6.353,4.173c0,0-2.06,0.379,0.172,2.276c2.232,1.896,10.302,2.656,10.302,2.656
							s-12.877,10.621-18.714,13.466c-5.838,2.845-9.271,3.793-7.211,7.207c2.06,3.414,10.816,3.225,10.816,3.225
							s1.889,5.121,7.039,4.552c0,0-17.686,3.035-18.458,5.121c-0.772,2.086,0,3.225,0,3.225s-4.72,2.465-3.519,4.552
							c0.914,1.587,3.912,2.076,5.296,2.22c-1.227-0.023-3.488,0.306-2.206,3.281c1.717,3.983,15.281,8.156,15.281,8.156
							s-11.503,4.742-19.744,0c0,0-2.919,1.328-1.03,3.793c1.889,2.466,1.03,3.035,1.03,3.035s-4.292-3.224-2.404,1.707
							c1.888,4.931,11.846,7.966,11.846,7.966s-5.666,0.948-3.949,3.983c1.717,3.035,8.927,6.638,16.825,7.397
							c7.898,0.759,18.542-2.086,18.542-2.086s-7.211,3.794-2.232,5.88c4.979,2.086,10.645-2.655,10.645-2.655
							s-1.03,4.854,3.09,3.186c4.121-1.668,7.555-4.893,7.555-4.893s1.287,7.154,3.859,5.442c2.573,1.712,3.859-5.442,3.859-5.442
							s3.434,3.224,7.555,4.893c4.12,1.668,3.09-3.186,3.09-3.186s5.666,4.742,10.645,2.655c4.979-2.086-2.232-5.88-2.232-5.88
							s10.644,2.845,18.542,2.086c7.898-0.759,15.109-4.362,16.826-7.397c1.717-3.035-3.949-3.983-3.949-3.983
							s9.958-3.035,11.847-7.966C647.384,271.579,643.091,274.803,643.091,274.803z"/>
					</g>
				</g>
			</g>
		</g>
		<g>
			<g>
				<g>
					<g>
						<path d="M604.401,161.389c-0.093-0.042-0.184-0.084-0.269-0.124C604.228,161.291,604.317,161.335,604.401,161.389z"/>
					</g>
				</g>
			</g>
		</g>
		<g style="opacity:0.1;">
			<g>
				<g>
					<g>
						<g>
							<path d="M591.465,141.939l-4.09-1.601c0,0-2.258,3.354-6.537,1.143c-4.278-2.211-6.556-6.556-6.556-6.556
								s-6.004,3.964-6.625,1.449c-0.621-2.516,1.884-3.507,1.884-3.507c-0.2,0.441-0.396,0.985-0.154,1.4
								c0.263,0.451,0.859,0.436,1.333,0.32c1.57-0.386,3.022-1.331,4.088-2.661c1.201,2.854,3.652,4.814,6.174,6.277
								c1.103,0.64,2.367,1.223,3.562,0.835c1.195-0.388,1.988-2.233,1.1-3.197c1.886,2.475,4.701,4.057,7.622,4.285
								c0.625,0.049,1.435-0.114,1.555-0.794c0.071-0.399-0.15-0.784-0.372-1.107c-0.887-1.291-1.979-2.409-3.21-3.288
								c2.762,2.021,5.997,3.245,9.3,3.521l2.907,0.39c0.099,0.348,0.061,0.631-0.187,0.802c-1.373,0.948-4.635,0-4.635,0
								s6.524,3.794,3.434,4.741c-3.09,0.948-9.271-2.276-9.271-2.276s0.275,0.266,0.762,0.725L591.465,141.939z"/>
						</g>
					</g>
				</g>
			</g>
		</g>
		<g style="opacity:0.1;">
			<g>
				<g>
					<g>
						<g>
							<path d="M554.956,167.439l7.932-2.861c0,0,0.89,4.828,5.747,4.56c0,0,4.209,0.358,4.532-4.56c0,0,4.047,3.934,12.221,2.771
								c0,0,1.376-0.178,1.052-2.414c0,0,2.185,2.772,5.908,0.805c3.723-1.967,0.49-5.275,0.49-5.275l-0.5-0.267
								c0.343,0.658,0.681,1.455,0.389,2.142c-0.416,0.98-1.69,0.91-2.632,0.613c-2.604-0.821-5.063-2.199-7.201-4.036
								c0.578,0.688,1.169,1.398,1.487,2.269c0.317,0.871,0.305,1.954-0.253,2.662c-0.545,0.692-1.448,0.863-2.277,0.91
								c-4.107,0.229-8.271-1.665-11.042-5.024c-0.04,1.271,0.267,2.533,0.22,3.804c-0.047,1.271-0.592,2.671-1.69,3.053
								c-1.304,0.454-2.636-0.77-3.211-2.14c-0.576-1.37-0.703-2.934-1.318-4.283c-1.94,1.92-4.276,3.351-6.778,4.152
								c-0.706,0.226-1.446,0.403-2.172,0.277c-0.726-0.126-1.44-0.613-1.695-1.374c-0.22-0.658,0.021-1.493,0.55-1.835
								c-3.181,1.442-10.538,4.008-11.988,0.424c-0.769,1.547-0.604,3.425,2.827,4.959c0,0,6.131,1.184,8.834,0.194
								c-0.464,0.242-1.122,0.589-1.918,1.015L554.956,167.439z"/>
						</g>
					</g>
				</g>
			</g>
		</g>
		<g style="opacity:0.1;">
			<g>
				<g>
					<g>
						<g>
							<path d="M610.201,190.755c-2.043-0.313-4.03-1.068-5.808-2.223c-0.533,1.571-2.297,2.271-3.794,1.993
								c-1.497-0.278-2.786-1.289-4.017-2.272c-1.091,1.585-2.84,2.593-4.641,2.673c-1.8,0.081-3.618-0.767-4.822-2.249
								c-5.012,3.694-10.967,6.416-16.948,5.614c-1.105-0.148-2.284-0.471-2.995-1.418c-0.711-0.947-0.606-2.675,0.428-3.129
								c-3.653,0.787-7.449,1.571-11.057,0.564c-3.608-1.007-6.519-4.004-5.74-8.689c0.161,0.734,0.49,1.875,0.943,2.617
								c0.453,0.741,1.269,1.086,2.043,1.348c6.007,2.024,12.694,1.465,18.357-1.533c-1.203,1.324-0.373,3.802,1.136,4.662
								c1.509,0.86,3.321,0.59,4.994,0.267c1.832-0.353,3.677-0.75,5.374-1.588c1.697-0.839,3.255-2.166,4.114-3.989
								c0.689,1.224,1.405,2.479,2.46,3.327c1.055,0.848,2.545,1.201,3.674,0.477c1.129-0.724,1.507-2.726,0.5-3.644
								c2.423,1.507,5.069,2.574,7.8,3.146c0.685,0.143,1.498,0.212,1.973-0.351c0.477-0.566,0.332-1.527-0.124-2.114
								c-0.173-0.222-0.379-0.404-0.602-0.559c3.838,1.858,8.127,2.572,12.288,2.019l0.057,0.758
								c-3.134,1.827-7.042,2.691-7.042,2.691S609.245,189.773,610.201,190.755z"/>
						</g>
					</g>
				</g>
			</g>
		</g>
		<g style="opacity:0.1;">
			<g>
				<g>
					<g>
						<g>
							<path d="M543.641,216.801c3.782-0.226,7.441-1.514,11.004-2.934c6.113,4.42,14.618,4.374,20.692-0.112
								c4.7,4.41,12.099,4.843,17.194,1.006c2.707,1.25,5.669,2.236,8.546,1.607c2.878-0.629,5.56-3.346,5.468-6.585
								c-1.745,2.093-4.304,3.331-6.881,3.327c-2.577-0.004-5.132-1.249-6.872-3.348c-2.01,2.643-5.186,4.149-8.305,3.936
								c-3.118-0.212-6.104-2.137-7.805-5.032c-3.933,3.301-9.067,4.802-13.964,4.083c-1.398-0.205-2.834-0.616-3.896-1.641
								c-1.062-1.025-1.633-2.803-1.009-4.2c-6.401,4.931-15.572,4.975-22.012,0.104l-0.055,0.124
								c0.117,0.305,0.406,0.689,0.974,1.172c2.232,1.897,10.301,2.655,10.301,2.655s-3.213,2.65-7.156,5.657
								C541.116,216.82,542.388,216.876,543.641,216.801z"/>
						</g>
					</g>
				</g>
			</g>
		</g>
		<g style="opacity:0.1;">
			<g>
				<g>
					<g>
						<g>
							<path d="M632.566,234.319c-2.865,0.604-5.785,0.543-5.785,0.543s-1.889,5.121-7.039,4.552c0,0,2.563,0.44,5.779,1.099
								c-3.894,1.492-8.422,0.994-11.893-1.49c-6.267,6.322-16.763,6.674-23.366,0.784c-6.357,5.711-16.312,5.814-22.764,0.235
								c-3.511,3.182-8.135,5.037-12.64,4.394c-4.505-0.643-8.751-4.022-10.192-8.781c7.02,4.992,16.975,4.242,23.316-1.757
								c0.088,1.496,1.215,2.723,2.486,3.249c1.271,0.526,2.669,0.489,4.025,0.42c5.543-0.285,11.41-1.15,15.711-5.022
								c2.741,3.583,7.118,5.555,11.346,5.112c4.228-0.443,8.191-3.289,10.273-7.378c7.786,4.06,17.284,3.859,24.924-0.527
								L632.566,234.319z"/>
						</g>
					</g>
				</g>
			</g>
		</g>
		<g style="opacity:0.1;">
			<g>
				<g>
					<g>
						<g>
							<path d="M597.896,259.419c0.113,1.771-0.926,3.458-2.299,4.383c-1.372,0.925-3.024,1.203-4.63,1.257
								c-4.871,0.164-9.777-1.615-13.613-4.936c-2.912,3.611-7.256,5.758-11.634,5.748c-4.377-0.009-8.714-2.175-11.613-5.798
								c-10.876,3.037-22.773,1.347-32.599-4.63l-1.481,0.814c-0.002,0.414,0.109,0.924,0.38,1.554
								c1.717,3.983,15.281,8.156,15.281,8.156s-1.376,0.567-3.516,1.113c2.341,0.708,4.37,1.289,5.653,1.699
								c4.784,1.531,10.385,0.651,13.975-3.163c3.309,3.883,8.119,6.15,12.946,6.102c4.827-0.048,9.6-2.41,12.845-6.359
								c3.125,3.534,7.243,6.293,11.713,6.458c4.47,0.165,9.18-2.815,10.391-7.571c5.53,2.009,12.137-0.487,15.395-5.817
								C609.925,261.703,603.341,262.082,597.896,259.419z"/>
						</g>
					</g>
				</g>
			</g>
		</g>
	</g>
</g>
<g id="Birds">
	<g>
		<g>
			<g>
				<g>
					<g>
						<g>
							<path style="fill:#263238;" d="M426.07,164.671c-0.014,0.039-0.682-0.236-1.945-0.516c-1.256-0.276-3.141-0.52-5.427-0.209
								c-2.27,0.304-4.959,1.216-7.313,3.154c-2.349,1.902-4.359,4.781-5.162,8.197c-0.008,0.031-0.016,0.062-0.023,0.091
								l-0.15,0.586l-0.225-0.556c-1.314-3.245-3.649-5.824-6.181-7.463c-2.539-1.669-5.27-2.361-7.548-2.517
								c-2.293-0.16-4.153,0.169-5.393,0.494c-1.245,0.328-1.903,0.617-1.917,0.58c-0.005-0.012,0.156-0.09,0.469-0.226
								c0.312-0.138,0.784-0.319,1.407-0.502c1.239-0.373,3.117-0.751,5.452-0.624c2.318,0.122,5.118,0.799,7.728,2.49
								c2.601,1.66,5.001,4.291,6.35,7.621l-0.375,0.03c0.007-0.029,0.016-0.061,0.024-0.093c0.826-3.512,2.898-6.456,5.318-8.39
								c2.426-1.971,5.192-2.876,7.506-3.148c2.333-0.28,4.241,0.011,5.499,0.336c0.633,0.159,1.113,0.324,1.431,0.453
								C425.911,164.585,426.075,164.658,426.07,164.671z"/>
						</g>
					</g>
				</g>
			</g>
		</g>
		<g>
			<g>
				<g>
					<g>
						<g>
							<path style="fill:#263238;" d="M480.335,137.887c-0.012,0.033-0.384-0.107-1.077-0.25c-0.69-0.141-1.722-0.264-2.969-0.086
								c-1.238,0.174-2.701,0.678-3.979,1.736c-1.276,1.039-2.368,2.608-2.804,4.465l-0.013,0.049l-0.15,0.585l-0.225-0.555
								c-0.715-1.766-1.984-3.172-3.362-4.069c-1.381-0.913-2.867-1.297-4.111-1.39c-1.252-0.095-2.271,0.075-2.953,0.242
								c-0.685,0.17-1.051,0.318-1.064,0.286c-0.005-0.013,0.081-0.061,0.252-0.141c0.17-0.081,0.428-0.186,0.771-0.292
								c0.681-0.216,1.718-0.435,3.012-0.372c1.284,0.059,2.84,0.428,4.291,1.363c1.446,0.917,2.781,2.376,3.53,4.227l-0.375,0.03
								l0.013-0.052c0.459-1.953,1.613-3.587,2.96-4.658c1.351-1.091,2.889-1.587,4.172-1.73c1.294-0.147,2.348,0.024,3.04,0.214
								c0.348,0.093,0.612,0.189,0.785,0.266C480.252,137.828,480.34,137.874,480.335,137.887z"/>
						</g>
					</g>
				</g>
			</g>
		</g>
		<g>
			<g>
				<g>
					<g>
						<g>
							<path style="fill:#263238;" d="M444.856,125.699c0.024,0.025-0.371,0.426-1.043,1.183c-0.673,0.756-1.59,1.905-2.547,3.438
								c-1.924,3.026-3.848,7.849-3.782,13.382c0,0.058-0.001,0.116-0.001,0.169l-0.392,0.032c-0.409-2.7-1.31-5.177-2.447-7.248
								c-1.134-2.077-2.467-3.763-3.725-5.033c-1.257-1.273-2.404-2.171-3.23-2.738c-0.824-0.57-1.302-0.857-1.284-0.888
								c0.007-0.012,0.132,0.049,0.365,0.175c0.229,0.133,0.585,0.303,1.003,0.586c0.858,0.532,2.043,1.405,3.341,2.669
								c1.3,1.26,2.676,2.953,3.846,5.054c1.173,2.094,2.102,4.614,2.52,7.366l-0.392,0.032c0-0.054,0.001-0.113,0.001-0.172
								c-0.067-5.63,1.935-10.516,3.941-13.536c0.998-1.531,1.957-2.663,2.669-3.393c0.343-0.377,0.649-0.632,0.841-0.818
								C444.738,125.78,444.847,125.689,444.856,125.699z"/>
						</g>
					</g>
				</g>
			</g>
		</g>
	</g>
</g>
<g id="Plants">
	<g>
		<g>
			<g>
				<g>
					<path style="fill:#455A64;" d="M250.348,283.25c1.7,0.533,3.054,1.909,3.83,3.513c0.776,1.604,1.023,3.419,1.01,5.2
						c-0.026,3.447-1.597,7.09-3.393,10.032c-3.133-2.2-4.255-6.496-4.687-8.712C246.425,289.781,247.317,283.038,250.348,283.25"/>
				</g>
			</g>
		</g>
		<g>
			<g>
				<g>
					<path style="fill:#455A64;" d="M255.723,307.263c-0.663-1.876-0.085-4.073,1.253-5.546c1.338-1.473,3.344-2.248,5.333-2.306
						c0.92-0.027,1.934,0.135,2.536,0.831c0.563,0.651,0.612,1.637,0.296,2.437c-0.316,0.8-0.942,1.439-1.618,1.971
						C261.203,306.472,258.623,307.809,255.723,307.263"/>
				</g>
			</g>
		</g>
		<g>
			<g>
				<g>
					<g>
						<path style="fill:#263238;" d="M253.15,318.095c-0.018-0.002-0.005-0.255,0.028-0.71c0.038-0.501,0.088-1.149,0.147-1.928
							c0.15-1.614,0.317-3.921,1.313-6.249c0.98-2.321,2.505-4.115,3.849-5.067c0.666-0.486,1.26-0.796,1.685-0.969
							c0.209-0.096,0.383-0.142,0.496-0.183c0.115-0.037,0.176-0.053,0.179-0.044c0.026,0.053-0.969,0.343-2.254,1.338
							c-1.292,0.971-2.762,2.742-3.726,5.024c-0.977,2.28-1.173,4.558-1.367,6.168c-0.09,0.811-0.163,1.468-0.226,1.921
							C253.213,317.848,253.167,318.098,253.15,318.095z"/>
					</g>
				</g>
			</g>
		</g>
		<g>
			<g>
				<g>
					<g>
						<path style="fill:#263238;" d="M250.123,288.445c0.008-0.001,0.031,0.103,0.067,0.302c0.037,0.225,0.085,0.514,0.145,0.872
							c0.121,0.758,0.283,1.857,0.471,3.217c0.377,2.72,0.845,6.485,1.269,10.653c0.422,4.17,0.719,7.953,0.896,10.693
							c0.089,1.37,0.151,2.479,0.184,3.246c0.014,0.362,0.025,0.655,0.033,0.884c0.005,0.202,0.003,0.309-0.005,0.309
							c-0.009,0-0.024-0.105-0.045-0.306c-0.021-0.228-0.047-0.519-0.08-0.881c-0.065-0.796-0.154-1.895-0.263-3.24
							c-0.222-2.736-0.546-6.513-0.968-10.68c-0.423-4.165-0.863-7.931-1.195-10.655c-0.163-1.339-0.296-2.434-0.393-3.227
							c-0.04-0.36-0.073-0.652-0.098-0.879C250.121,288.552,250.114,288.446,250.123,288.445z"/>
					</g>
				</g>
			</g>
		</g>
		<g>
			<g>
				<g>
					<path style="fill:#455A64;" d="M250.981,309.862c-1.089-4.052-4.26-7.484-8.214-8.888c-1.007-0.358-2.29-0.525-3.003,0.271
						c-0.714,0.798-0.401,2.06,0.09,3.011c2.043,3.957,6.666,6.414,11.088,5.893"/>
				</g>
			</g>
		</g>
		<g>
			<g>
				<g>
					<g>
						<path style="fill:#263238;" d="M243.574,304.155c0.006-0.016,0.232,0.056,0.637,0.201c0.203,0.071,0.451,0.16,0.727,0.294
							c0.275,0.134,0.603,0.258,0.934,0.456c0.336,0.188,0.71,0.386,1.081,0.648c0.386,0.24,0.768,0.539,1.169,0.856
							c0.784,0.653,1.587,1.448,2.301,2.388c0.705,0.947,1.248,1.939,1.653,2.876c0.188,0.475,0.369,0.926,0.485,1.366
							c0.144,0.431,0.224,0.847,0.303,1.224c0.093,0.375,0.112,0.725,0.157,1.027c0.046,0.303,0.054,0.566,0.059,0.781
							c0.014,0.43,0.013,0.667-0.004,0.668c-0.056,0.004-0.059-0.952-0.385-2.44c-0.089-0.37-0.178-0.777-0.328-1.199
							c-0.123-0.431-0.308-0.871-0.499-1.336c-0.41-0.916-0.949-1.886-1.642-2.816c-0.701-0.924-1.485-1.708-2.248-2.361
							c-0.39-0.317-0.762-0.617-1.137-0.861c-0.361-0.266-0.725-0.47-1.051-0.665C244.459,304.507,243.554,304.205,243.574,304.155z
							"/>
					</g>
				</g>
			</g>
		</g>
	</g>
	<g>
		<g>
			<g>
				<g>
					<path style="fill:#455A64;" d="M57.827,290.326c1.335,0.419,2.399,1.5,3.009,2.759c0.61,1.26,0.804,2.686,0.793,4.085
						c-0.02,2.708-1.255,5.569-2.665,7.88c-2.461-1.728-3.342-5.103-3.682-6.843C54.745,295.456,55.446,290.159,57.827,290.326"/>
				</g>
			</g>
		</g>
		<g>
			<g>
				<g>
					<path style="fill:#455A64;" d="M62.049,309.189c-0.521-1.474-0.067-3.199,0.985-4.356c1.051-1.157,2.627-1.766,4.189-1.812
						c0.723-0.021,1.519,0.106,1.992,0.653c0.442,0.511,0.48,1.286,0.232,1.914c-0.248,0.629-0.74,1.131-1.271,1.548
						C66.353,308.568,64.327,309.618,62.049,309.189"/>
				</g>
			</g>
		</g>
		<g>
			<g>
				<g>
					<g>
						<path style="fill:#263238;" d="M60.028,317.698c-0.014-0.002-0.004-0.2,0.022-0.558c0.03-0.394,0.069-0.903,0.115-1.515
							c0.118-1.268,0.249-3.08,1.031-4.909c0.77-1.823,1.968-3.232,3.023-3.98c0.523-0.382,0.99-0.625,1.324-0.761
							c0.164-0.075,0.3-0.112,0.389-0.144c0.09-0.029,0.138-0.041,0.141-0.035c0.021,0.042-0.761,0.27-1.77,1.051
							c-1.015,0.763-2.169,2.154-2.927,3.946c-0.767,1.791-0.921,3.581-1.074,4.845c-0.07,0.637-0.128,1.153-0.177,1.509
							C60.077,317.504,60.041,317.7,60.028,317.698z"/>
					</g>
				</g>
			</g>
		</g>
		<g>
			<g>
				<g>
					<g>
						<path style="fill:#263238;" d="M57.65,294.407c0.007-0.001,0.025,0.081,0.053,0.237c0.029,0.177,0.067,0.404,0.114,0.685
							c0.095,0.596,0.222,1.459,0.37,2.527c0.296,2.136,0.664,5.094,0.997,8.368c0.332,3.276,0.565,6.247,0.704,8.399
							c0.07,1.076,0.119,1.947,0.145,2.55c0.011,0.285,0.019,0.515,0.026,0.694c0.004,0.159,0.003,0.242-0.004,0.243
							c-0.007,0-0.019-0.082-0.035-0.24c-0.016-0.179-0.037-0.408-0.063-0.692c-0.051-0.625-0.121-1.489-0.207-2.545
							c-0.174-2.149-0.429-5.116-0.761-8.39c-0.332-3.272-0.678-6.23-0.939-8.37c-0.128-1.052-0.232-1.912-0.308-2.535
							c-0.032-0.283-0.057-0.512-0.077-0.69C57.648,294.491,57.643,294.408,57.65,294.407z"/>
					</g>
				</g>
			</g>
		</g>
		<g>
			<g>
				<g>
					<path style="fill:#455A64;" d="M58.324,311.23c-0.855-3.183-3.346-5.879-6.452-6.982c-0.791-0.281-1.799-0.413-2.359,0.213
						c-0.561,0.626-0.315,1.618,0.071,2.366c1.605,3.108,5.236,5.038,8.71,4.629"/>
				</g>
			</g>
		</g>
		<g>
			<g>
				<g>
					<g>
						<path style="fill:#263238;" d="M52.505,306.747c0.005-0.013,0.182,0.044,0.5,0.158c0.16,0.056,0.355,0.125,0.571,0.231
							c0.216,0.105,0.473,0.202,0.733,0.359c0.264,0.148,0.558,0.303,0.849,0.509c0.303,0.189,0.603,0.423,0.918,0.672
							c0.616,0.513,1.247,1.137,1.807,1.876c0.554,0.744,0.981,1.523,1.299,2.259c0.148,0.373,0.29,0.727,0.381,1.073
							c0.113,0.339,0.176,0.665,0.238,0.962c0.073,0.294,0.088,0.57,0.123,0.807c0.036,0.238,0.043,0.445,0.047,0.614
							c0.011,0.338,0.011,0.524-0.003,0.524c-0.044,0.003-0.046-0.748-0.303-1.917c-0.07-0.291-0.14-0.611-0.258-0.942
							c-0.097-0.338-0.242-0.684-0.392-1.049c-0.322-0.72-0.745-1.481-1.289-2.212c-0.551-0.726-1.167-1.342-1.766-1.855
							c-0.306-0.249-0.598-0.485-0.893-0.677c-0.283-0.209-0.569-0.369-0.826-0.523C53.201,307.025,52.489,306.787,52.505,306.747z"
							/>
					</g>
				</g>
			</g>
		</g>
	</g>
	<g>
		<g>
			<g>
				<g>
					<path style="fill:#455A64;" d="M677.597,288.555c1.335,0.419,2.399,1.5,3.009,2.759c0.61,1.26,0.804,2.686,0.793,4.085
						c-0.02,2.707-1.255,5.569-2.665,7.88c-2.461-1.728-3.342-5.103-3.682-6.843C674.515,293.686,675.216,288.389,677.597,288.555"
						/>
				</g>
			</g>
		</g>
		<g>
			<g>
				<g>
					<path style="fill:#455A64;" d="M681.819,307.419c-0.521-1.474-0.067-3.199,0.984-4.356c1.051-1.157,2.627-1.766,4.189-1.812
						c0.722-0.021,1.519,0.106,1.992,0.653c0.442,0.511,0.48,1.285,0.232,1.914c-0.248,0.629-0.74,1.131-1.271,1.548
						C686.123,306.797,684.097,307.848,681.819,307.419"/>
				</g>
			</g>
		</g>
		<g>
			<g>
				<g>
					<g>
						<path style="fill:#263238;" d="M679.798,315.928c-0.014-0.002-0.004-0.2,0.022-0.558c0.03-0.394,0.069-0.903,0.115-1.514
							c0.118-1.268,0.249-3.08,1.031-4.909c0.769-1.823,1.968-3.232,3.023-3.98c0.523-0.381,0.99-0.625,1.324-0.761
							c0.164-0.075,0.3-0.112,0.389-0.144c0.09-0.029,0.139-0.041,0.141-0.035c0.02,0.042-0.761,0.27-1.77,1.051
							c-1.015,0.763-2.169,2.154-2.927,3.946c-0.767,1.791-0.921,3.581-1.074,4.845c-0.07,0.637-0.128,1.153-0.177,1.509
							C679.847,315.734,679.811,315.93,679.798,315.928z"/>
					</g>
				</g>
			</g>
		</g>
		<g>
			<g>
				<g>
					<g>
						<path style="fill:#263238;" d="M677.419,292.636c0.007-0.001,0.025,0.081,0.053,0.237c0.029,0.177,0.067,0.404,0.114,0.685
							c0.095,0.596,0.222,1.459,0.37,2.527c0.296,2.136,0.664,5.094,0.997,8.368c0.332,3.275,0.565,6.247,0.704,8.399
							c0.07,1.076,0.119,1.947,0.145,2.55c0.011,0.285,0.019,0.515,0.026,0.694c0.004,0.159,0.003,0.242-0.004,0.243
							c-0.007,0-0.019-0.082-0.035-0.24c-0.016-0.179-0.037-0.408-0.063-0.692c-0.051-0.625-0.121-1.489-0.207-2.545
							c-0.174-2.149-0.429-5.116-0.761-8.39c-0.332-3.272-0.678-6.23-0.939-8.37c-0.128-1.052-0.233-1.912-0.308-2.535
							c-0.032-0.283-0.057-0.512-0.077-0.69C677.418,292.721,677.413,292.637,677.419,292.636z"/>
					</g>
				</g>
			</g>
		</g>
		<g>
			<g>
				<g>
					<path style="fill:#455A64;" d="M678.094,309.46c-0.855-3.183-3.346-5.879-6.452-6.982c-0.791-0.281-1.799-0.413-2.359,0.213
						c-0.561,0.627-0.315,1.618,0.07,2.366c1.605,3.108,5.236,5.038,8.71,4.629"/>
				</g>
			</g>
		</g>
		<g>
			<g>
				<g>
					<g>
						<path style="fill:#263238;" d="M672.275,304.977c0.004-0.013,0.182,0.044,0.5,0.158c0.16,0.056,0.355,0.125,0.571,0.231
							c0.216,0.105,0.473,0.203,0.733,0.359c0.264,0.148,0.558,0.303,0.849,0.509c0.303,0.189,0.603,0.423,0.918,0.672
							c0.616,0.513,1.247,1.137,1.807,1.876c0.554,0.744,0.981,1.523,1.299,2.259c0.148,0.373,0.29,0.727,0.381,1.073
							c0.113,0.339,0.176,0.665,0.238,0.962c0.073,0.294,0.088,0.57,0.123,0.807c0.036,0.238,0.043,0.445,0.047,0.614
							c0.011,0.338,0.011,0.524-0.003,0.525c-0.044,0.003-0.046-0.748-0.303-1.917c-0.07-0.291-0.14-0.611-0.258-0.942
							c-0.097-0.338-0.242-0.684-0.392-1.049c-0.322-0.72-0.746-1.481-1.29-2.212c-0.551-0.726-1.167-1.342-1.766-1.855
							c-0.307-0.249-0.598-0.485-0.893-0.676c-0.283-0.209-0.569-0.369-0.826-0.523C672.97,305.254,672.259,305.017,672.275,304.977
							z"/>
					</g>
				</g>
			</g>
		</g>
	</g>
</g>
<g id="Sun">
	<g>
		<g>
			<g>
				<circle style="fill-rule:evenodd;clip-rule:evenodd;fill:#FF725E;" cx="306.702" cy="102.283" r="28.76"/>
			</g>
			<g style="opacity:0.9;">
				<circle style="fill-rule:evenodd;clip-rule:evenodd;fill:#FFFFFF;" cx="306.702" cy="102.283" r="28.76"/>
			</g>
		</g>
		<g>
			<g>
				<circle style="fill-rule:evenodd;clip-rule:evenodd;fill:#FF725E;" cx="306.702" cy="102.283" r="25.649"/>
			</g>
			<g style="opacity:0.6;">
				<circle style="fill-rule:evenodd;clip-rule:evenodd;fill:#FFFFFF;" cx="306.702" cy="102.283" r="25.649"/>
			</g>
		</g>
		<g>
			<g>
				<circle style="fill-rule:evenodd;clip-rule:evenodd;fill:#FF725E;" cx="306.702" cy="102.283" r="21.343"/>
			</g>
			<g style="opacity:0.3;">
				<circle style="fill-rule:evenodd;clip-rule:evenodd;fill:#FFFFFF;" cx="306.702" cy="102.283" r="21.343"/>
			</g>
		</g>
		<g>
			<circle style="fill-rule:evenodd;clip-rule:evenodd;fill:#FF725E;" cx="306.702" cy="102.283" r="17.089"/>
		</g>
	</g>
</g>
<g id="Car">
	<g>
		<path style="fill:#FF725E;" d="M637.317,324.422c0,0,10.427-0.685,13.777,0.355s12.595,16.714,12.595,16.714L637.317,324.422z"/>
		<path style="opacity:0.3;" d="M637.317,324.422c0,0,10.427-0.685,13.777,0.355s12.595,16.714,12.595,16.714L637.317,324.422z"/>
		<path style="fill:#455A64;" d="M465.769,297.361c0,0,106.093,22.109,104.627,24.378c-1.465,2.269-74.729,0-74.729,0
			l-33.335-17.146L465.769,297.361z"/>
		<path style="fill:#455A64;" d="M219.096,342.955c0,0,68.385-43.334,112.046-49.242l8.248,7.642c0,0-86.592,46.463-88.057,46.829
			C249.867,348.55,219.096,342.955,219.096,342.955z"/>
		<g>
			<polygon style="fill:#FF725E;" points="327.375,429.63 90.512,429.63 90.512,364.504 184.65,350.329 327.375,364.504 			"/>
			<polygon style="opacity:0.6;" points="327.375,429.63 90.512,429.63 90.512,364.504 184.65,350.329 327.375,364.504 			"/>
		</g>
		<g>
			<polygon style="fill:#FF725E;" points="440.096,425.448 676.958,425.448 676.958,360.323 599.851,334.309 440.096,360.323 			"/>
			<polygon style="opacity:0.6;" points="440.096,425.448 676.958,425.448 676.958,360.323 599.851,334.309 440.096,360.323 			"/>
		</g>
		<path style="fill:#263238;" d="M54.99,399.662c0,0.342,3.646,9.684,2.848,12.076c-0.797,2.393-7.592,6.152-7.592,6.152v2.279
			H64.56c0,0,6.836-11.165,6.494-11.165c-0.342,0-11.734-11.279-12.076-11.279C58.636,397.726,54.99,399.662,54.99,399.662z"/>
		<path style="fill:#FF725E;" d="M687.753,363.068c0.254-3.298-40.845-35.517-47.695-38.069c-6.85-2.552-74.84-3.283-74.84-3.283
			c-48.71-6.342-85.495-18.266-92.599-19.788c-7.104-1.522-6.85-4.566-6.85-4.566s-37.04-9.133-78.646-9.641
			c-41.606-0.507-58.35,6.85-58.35,6.85l6.089,3.298c-32.98,10.148-78.9,43.636-78.9,43.636l-30.951-2.03
			c-27.145-1.776-64.439,3.298-64.439,3.298c-74.587,11.67-110.104,48.71-110.104,48.71l0.999,9.642c0,0,8.203,1.621,9.013,10.532
			c0.691,7.597-0.625,13.568-0.625,13.568l-9.387,2.791c-3.298,6.596,31.205,9.133,31.205,9.133
			c13.461,1.39,33.021,2.21,54.04,2.673c-4.252-8.683-6.482-18.536-6.056-28.951c1.275-31.16,26.715-56.491,57.88-57.633
			c34.274-1.255,62.455,26.157,62.455,60.152c0,5.605,0.279,18.171-0.682,26.55h281.912l2.129-0.15
			c-0.36-9.69-0.936-30.093,0.215-38.149c4.703-32.909,28.484-54.378,61.728-54.378c33.244,0,60.193,26.949,60.193,60.193
			c0,4.951,0.218,15.334-0.393,23.464c5.457-1.174,21.297-4.646,22.764-5.695c1.776-1.269,5.328-31.205,5.328-31.205l4.567-3.552
			C687.753,390.467,687.499,366.366,687.753,363.068z"/>
		<g style="opacity:0.3;">
			<path d="M60.481,411.655c0.691,7.597-0.625,13.568-0.625,13.568l-9.387,2.791c-3.298,6.596,31.205,9.133,31.205,9.133
				c13.461,1.39,33.021,2.21,54.04,2.673c-3.907-7.98-6.108-16.948-6.108-26.432c0-19.106,8.912-36.12,22.794-47.147
				c-5.385,3.855-21.292,13.596-47.853,16.429c-33.359,3.558-54.078,8.812-54.078,8.812l0.999,9.642
				C51.468,401.123,59.671,402.744,60.481,411.655z"/>
			<path d="M154.477,364.66l0.001-0.013c0,0-0.038,0.032-0.093,0.079C154.415,364.704,154.447,364.682,154.477,364.66z"/>
			<path d="M660.989,402.927c1.062-15.569-8.492-60.861-60.861-62.63c-22.911-0.774-38.846,5.563-49.524,12.938
				c-18.145,12.531-39.899,18.749-61.867,16.835c-47.268-4.118-120.809-10.221-153.989-11.373
				c-50.953-1.769-101.862,12.66-102.378,12.137v0c10.887,10.892,17.622,25.937,17.622,42.554c0,5.605,0.279,18.171-0.682,26.55
				h281.912l2.129-0.15c-0.36-9.69-0.936-30.093,0.215-38.149c4.703-32.909,28.484-54.378,61.728-54.378
				c33.244,0,60.193,26.949,60.193,60.193c0,4.951,0.218,15.334-0.393,23.464c5.457-1.174,21.297-4.646,22.764-5.695
				c1.137-0.812,3-13.363,4.195-22.297H660.989z"/>
		</g>
		<path style="opacity:0.3;" d="M85.898,375.98c0,0,9.618-3.408,16.45-6.701c4.479-2.16,19.401-9.594,29.147-14.458
			c1.029-0.513,0.42-2.069-0.685-1.751c-12.89,3.714-35.138,10.571-42.256,15.556L85.898,375.98z"/>
		<path style="fill:#FFFFFF;" d="M69.531,379.596c-1.043,0.779,13.915-2.355,16.912-3.853c2.997-1.499,29.328-16.912,29.328-16.912
			S88.154,365.689,69.531,379.596z"/>
		<path style="fill:#455A64;" d="M265.187,342.37c0,0,49.647-38.33,89.803-44.901c10.039-1.643,26.642-4.99,41.251-3.285
			c43.806,5.111,94.913,20.808,94.913,20.808s-54.393,14.967-101.119,21.538C345.516,342.79,283.487,343.832,265.187,342.37z"/>
		<path style="opacity:0.3;fill:#FFFFFF;" d="M339.005,304.931c-0.698,0.35-1.379,23.412,10.529,24.421
			c11.908,1.009,108.645-16.426,106.162-19.299c-5.058-5.854-53.687-12.052-62.567-12.693
			C385.021,296.775,350.255,299.28,339.005,304.931z"/>
		<g>
			<path style="fill:#263238;" d="M406.796,295.591c0,0,0.178,0.178,0.512,0.542c0.34,0.374,0.832,0.917,1.478,1.629
				c1.304,1.452,3.222,3.588,5.715,6.363c4.989,5.585,12.27,13.735,21.476,24.038l0.038,0.043l0.002,0.071
				c0.031,1.083,0.49,2.198,1.104,3.173c0.605,1.011,1.477,1.819,2.396,2.634c1.837,1.627,3.688,3.396,5.326,5.452
				c3.298,4.063,5.713,9.403,5.945,15.289c0.084,0.729,0,1.467,0.008,2.207l-0.021,1.114l-0.093,1.114
				c-0.138,1.488-0.333,2.985-0.573,4.49c-0.475,3.013-1.089,6.067-1.788,9.165c-1.406,6.195-3.146,12.57-5.197,19.082
				c-2.093,6.494-4.354,13.197-7.587,19.717c-0.844,1.609-1.713,3.238-2.977,4.649c-0.679,0.713-1.398,1.195-2.016,1.888
				c-0.645,0.642-1.21,1.361-1.741,2.108c-0.532,0.747-0.991,1.556-1.548,2.331c-0.548,0.778-1.247,1.492-2.076,2.005
				c-1.673,1.021-3.589,1.423-5.469,1.727c-1.904,0.197-3.824,0.359-5.741,0.445c-1.92,0.103-3.851,0.223-5.791,0.299
				c-3.88,0.162-7.799,0.326-11.753,0.49c-7.909,0.279-15.957,0.564-24.118,0.852c-41.618,1.349-80.325,2.373-112.497,3.193
				l-0.207,0.005l-0.016-0.205c-1.037-13.734-1.831-26.305-2.372-37.439c-0.264-5.567-0.452-10.776-0.529-15.592
				c-0.042-2.408-0.027-4.718,0.019-6.925c0.09-2.21,0.25-4.306,0.434-6.291c0.342-3.972,0.717-7.519,1.318-10.56
				c0.573-3.044,1.431-5.57,2.463-7.444c1.022-1.882,2.155-3.099,2.964-3.84c0.834-0.718,1.301-1.041,1.301-1.041
				s-0.103,0.098-0.316,0.279c-0.207,0.187-0.546,0.431-0.94,0.812c-0.79,0.754-1.898,1.976-2.894,3.853
				c-2.099,3.747-3.047,10.041-3.648,17.964c-0.175,1.986-0.325,4.082-0.406,6.278c-0.037,2.201-0.044,4.507,0.007,6.912
				c0.094,4.81,0.298,10.015,0.577,15.579c0.571,11.127,1.392,23.695,2.453,37.422l-0.222-0.2c32.17-0.875,70.876-1.93,112.491-3.28
				c8.16-0.287,16.207-0.57,24.115-0.848c3.952-0.163,7.87-0.325,11.749-0.486c1.94-0.075,3.866-0.194,5.784-0.296
				c1.923-0.085,3.815-0.245,5.692-0.436c1.854-0.296,3.726-0.701,5.28-1.653c1.587-0.935,2.409-2.661,3.483-4.196
				c0.544-0.765,1.129-1.508,1.794-2.168c0.613-0.69,1.43-1.259,2.013-1.882c1.192-1.326,2.068-2.945,2.9-4.532
				c3.212-6.462,5.483-13.159,7.578-19.634c2.056-6.497,3.802-12.859,5.215-19.038c0.703-3.09,1.32-6.135,1.799-9.134
				c0.242-1.499,0.439-2.987,0.579-4.463l0.095-1.104l0.022-1.098c-0.007-0.729,0.079-1.457-0.003-2.175
				c-0.217-5.798-2.578-11.054-5.827-15.082c-1.615-2.039-3.44-3.793-5.271-5.425c-1.872-1.559-3.465-3.648-3.59-6.077l0.04,0.114
				c-9.158-10.346-16.402-18.53-21.365-24.137c-2.465-2.8-4.362-4.954-5.652-6.419c-0.632-0.725-1.113-1.277-1.446-1.659
				C406.951,295.789,406.796,295.591,406.796,295.591z"/>
		</g>
		<path style="opacity:0.3;" d="M250.015,425.112c0,0,166.161-9.525,188.873-8.06c22.712,1.465,54.582,22.886,54.582,22.886H249.31
			L250.015,425.112z"/>
		<path style="opacity:0.3;" d="M382.841,351.847c-1.484,0.28,49.819-2.032,74.363-8.892c24.543-6.86,72.909-19.09,109.901-21.217
			c0,0-43.231,3.104-60.082,6.533C490.172,331.699,402.154,348.201,382.841,351.847z"/>
		<g>
			<path style="opacity:0.2;" d="M115.931,431.526c-14.501,2.645-54.215,2.53-53.623,3.045c8.863,1.801,19.366,2.576,19.366,2.576
				c13.278,1.371,33.346,2.206,54.04,2.673l-1.362-2.989c-1.186-2.799-2.149-5.714-2.905-8.71
				C129.581,428.7,125.294,429.818,115.931,431.526z"/>
			<path style="opacity:0.2;" d="M52.521,431.525c4.313-0.036,71.336-22.378,73.739-24.227c2.406-1.851,2.221-3.516,2.221-3.516
				L59.883,425.09c-0.016,0.079-0.028,0.134-0.028,0.134l-9.387,2.791C49.802,429.347,50.696,430.511,52.521,431.525z"/>
		</g>
		<g>
			<path style="fill:#263238;" d="M125.078,404.541c0.043,0.137-16.635,5.558-37.247,12.106
				c-20.619,6.551-37.365,11.748-37.408,11.611c-0.043-0.137,16.631-5.557,37.25-12.107
				C108.286,409.603,125.034,404.404,125.078,404.541z"/>
		</g>
		<g>
			<path style="fill:#263238;" d="M134.389,375.644c0.006,0.017-0.229,0.117-0.684,0.292c-0.504,0.188-1.168,0.435-1.997,0.743
				c-0.867,0.325-1.934,0.705-3.193,1.085c-1.256,0.388-2.676,0.869-4.279,1.284c-3.183,0.913-7.025,1.813-11.314,2.685
				c-4.295,0.842-9.043,1.634-14.041,2.342c-10.005,1.384-19.084,2.398-25.63,3.322c-3.273,0.457-5.921,0.839-7.745,1.136
				c-0.874,0.131-1.574,0.236-2.106,0.316c-0.482,0.067-0.737,0.093-0.741,0.075c-0.003-0.018,0.245-0.079,0.722-0.179
				c0.528-0.104,1.222-0.241,2.09-0.412c1.815-0.358,4.457-0.797,7.727-1.301c6.539-1.018,15.617-2.091,25.61-3.474
				c4.992-0.708,9.732-1.484,14.022-2.298c4.284-0.844,8.123-1.705,11.31-2.57c1.605-0.391,3.028-0.846,4.29-1.207
				c1.265-0.353,2.339-0.704,3.214-0.999c0.842-0.27,1.516-0.486,2.027-0.65C134.136,375.694,134.383,375.627,134.389,375.644z"/>
		</g>
		<g>
			<path style="fill:#263238;" d="M439.648,360.156c-0.022-0.077,0.728,0.118,1.68-0.562c0.449-0.34,0.898-0.943,0.979-1.743
				c0.026-0.387-0.004-0.862-0.003-1.333c0.011-0.475-0.067-0.934-0.312-1.372c-0.246-0.424-0.627-0.808-1.119-1.021
				c-0.489-0.242-1.046-0.217-1.686-0.206c-1.252,0.008-2.583,0.016-3.982,0.024c-2.813,0.006-5.892,0.013-9.123,0.021
				c-0.397,0.007-0.829-0.019-1.168,0.026c-0.355,0.052-0.697,0.182-0.989,0.384c-0.585,0.404-0.969,1.069-1.009,1.758
				c-0.055,0.689,0.212,1.376,0.689,1.84c0.483,0.488,1.101,0.681,1.802,0.706c2.772,0.262,5.281,0.499,7.419,0.701
				c2.047,0.212,3.735,0.387,4.997,0.518c0.538,0.066,0.986,0.121,1.356,0.167C439.488,360.106,439.65,360.138,439.648,360.156
				c-0.001,0.018-0.166,0.021-0.479,0.011c-0.373-0.019-0.823-0.042-1.365-0.07c-1.266-0.089-2.958-0.208-5.012-0.353
				c-2.141-0.17-4.653-0.369-7.428-0.59c-0.693-0.007-1.552-0.246-2.108-0.829c-0.582-0.556-0.913-1.393-0.85-2.23
				c0.046-0.84,0.51-1.656,1.224-2.149c0.356-0.247,0.775-0.409,1.209-0.472c0.455-0.056,0.831-0.023,1.242-0.033
				c3.232,0.007,6.311,0.014,9.123,0.021c1.398,0.008,2.73,0.017,3.982,0.024c0.319,0.008,0.601-0.007,0.937,0.02
				c0.323,0.033,0.634,0.12,0.917,0.253c0.57,0.261,1.003,0.714,1.275,1.21c0.271,0.498,0.346,1.07,0.32,1.549
				c-0.015,0.485,0.005,0.912-0.039,1.365c-0.12,0.894-0.646,1.535-1.15,1.875c-0.514,0.349-1.003,0.431-1.317,0.445
				C439.81,360.218,439.648,360.156,439.648,360.156z"/>
		</g>
		<path style="fill:#263238;" d="M285.913,328.021l1.539,14.934l-22.265-0.585C272.025,337.148,278.929,332.339,285.913,328.021z"/>
		<g>
			<ellipse style="fill:#FF725E;" cx="291.511" cy="342.955" rx="15.191" ry="8.45"/>
			<g>
				<path style="fill:#263238;" d="M306.702,342.955c-0.109,0.034,0.11-1.151-0.96-2.749c-0.991-1.619-3.333-3.315-6.566-4.343
					c-3.227-1.034-7.364-1.481-11.805-0.789c-2.213,0.346-4.504,1.035-6.62,2.217c-1.054,0.593-2.04,1.358-2.83,2.301
					c-0.784,0.94-1.332,2.116-1.34,3.361c0.006,1.246,0.554,2.423,1.338,3.363c0.79,0.944,1.776,1.709,2.83,2.302
					c2.117,1.183,4.409,1.872,6.622,2.218c4.442,0.692,8.579,0.244,11.806-0.789c3.234-1.028,5.575-2.724,6.566-4.343
					C306.812,344.105,306.592,342.921,306.702,342.955c0.018,0,0.012,0.264-0.018,0.775c-0.025,0.254-0.125,0.556-0.209,0.921
					c-0.158,0.335-0.275,0.765-0.561,1.161c-0.971,1.707-3.345,3.494-6.622,4.585c-3.273,1.097-7.467,1.592-11.997,0.914
					c-2.258-0.341-4.604-1.03-6.8-2.249c-1.093-0.613-2.13-1.407-2.976-2.415c-0.839-1.001-1.454-2.299-1.459-3.693
					c0.007-1.393,0.622-2.69,1.461-3.691c0.846-1.008,1.883-1.802,2.976-2.414c2.195-1.219,4.541-1.908,6.799-2.249
					c4.53-0.678,8.723-0.184,11.996,0.913c3.277,1.091,5.651,2.877,6.622,4.585c0.286,0.396,0.403,0.826,0.562,1.161
					c0.084,0.365,0.184,0.668,0.209,0.921C306.714,342.691,306.72,342.955,306.702,342.955z"/>
			</g>
		</g>
		<g>
			<g>
				<g>
					<g>
						<g>
							<g>
								<g>
									<g>
										<g>
											<g>
												<g>
													
														<ellipse transform="matrix(0.9995 -0.031 0.031 0.9995 -12.6408 6.0887)" style="fill:#263238;" cx="189.874" cy="410.365" rx="52.896" ry="52.895"/>
												</g>
											</g>
										</g>
									</g>
								</g>
							</g>
						</g>
					</g>
				</g>
			</g>
			<g>
				<g>
					<g>
						<g>
							<g>
								<g>
									<g>
										<g>
											<g>
												<g>
													<path style="fill:#263238;" d="M136.993,409.466c-0.001,0.046-0.008,0.091-0.009,0.136
														c-0.421,29.21,22.917,53.231,52.127,53.652c29.211,0.421,53.232-22.917,53.654-52.127
														c0.001-0.046-0.005-0.091-0.005-0.137L136.993,409.466z"/>
												</g>
											</g>
										</g>
									</g>
								</g>
							</g>
						</g>
					</g>
				</g>
			</g>
			<g>
				<g>
					<g>
						<g>
							<g>
								<g>
									<g>
										<g>
											<g>
												<g>
													<path style="fill:#FAFAFA;" d="M152.742,409.83c-0.296,20.508,16.089,37.372,36.596,37.668
														c20.508,0.296,37.373-16.089,37.668-36.597c0.296-20.508-16.089-37.372-36.597-37.668
														C169.902,372.937,153.038,389.322,152.742,409.83z"/>
												</g>
											</g>
										</g>
									</g>
								</g>
							</g>
						</g>
					</g>
				</g>
			</g>
			<g>
				<g>
					<g>
						<g>
							<g>
								<g>
									<g>
										<g>
											<g>
												<g>
													<path style="fill:#E0E0E0;" d="M190.41,373.233c-20.508-0.296-37.371,16.089-37.667,36.597l74.265,1.071
														C227.303,390.393,210.918,373.529,190.41,373.233z"/>
												</g>
											</g>
										</g>
									</g>
								</g>
							</g>
						</g>
					</g>
				</g>
			</g>
			<g>
				<g>
					<g>
						<g>
							<g>
								<g>
									<g>
										<g>
											<g>
												<g>
													<path style="fill:#263238;" d="M167.255,410.039c-0.18,12.492,9.801,22.765,22.292,22.945
														c12.492,0.18,22.766-9.801,22.946-22.293c0.18-12.493-9.801-22.766-22.294-22.946
														C177.708,387.566,167.435,397.547,167.255,410.039z"/>
												</g>
											</g>
										</g>
									</g>
								</g>
							</g>
						</g>
					</g>
				</g>
			</g>
		</g>
		<g>
			<g>
				<g>
					<g>
						<g>
							<g>
								<g>
									<g>
										<g>
											<g>
												<g>
													
														<ellipse transform="matrix(0.9993 -0.0367 0.0367 0.9993 -14.6679 22.1869)" style="fill:#263238;" cx="596.609" cy="410.365" rx="52.896" ry="52.895"/>
												</g>
											</g>
										</g>
									</g>
								</g>
							</g>
						</g>
					</g>
				</g>
			</g>
			<g>
				<g>
					<g>
						<g>
							<g>
								<g>
									<g>
										<g>
											<g>
												<g>
													<path style="fill:#263238;" d="M543.728,409.466c-0.001,0.046-0.008,0.091-0.009,0.136
														c-0.421,29.21,22.917,53.231,52.127,53.652c29.211,0.421,53.232-22.917,53.653-52.127
														c0.001-0.046-0.005-0.091-0.005-0.137L543.728,409.466z"/>
												</g>
											</g>
										</g>
									</g>
								</g>
							</g>
						</g>
					</g>
				</g>
			</g>
			<g>
				<g>
					<g>
						<g>
							<g>
								<g>
									<g>
										<g>
											<g>
												<g>
													<path style="fill:#FAFAFA;" d="M559.477,409.83c-0.296,20.508,16.089,37.372,36.596,37.668
														c20.508,0.296,37.373-16.089,37.668-36.597c0.296-20.508-16.089-37.372-36.597-37.668
														C576.637,372.937,559.773,389.322,559.477,409.83z"/>
												</g>
											</g>
										</g>
									</g>
								</g>
							</g>
						</g>
					</g>
				</g>
			</g>
			<g>
				<g>
					<g>
						<g>
							<g>
								<g>
									<g>
										<g>
											<g>
												<g>
													<path style="fill:#E0E0E0;" d="M597.145,373.233c-20.508-0.296-37.372,16.089-37.667,36.597l74.265,1.071
														C634.037,390.393,617.653,373.529,597.145,373.233z"/>
												</g>
											</g>
										</g>
									</g>
								</g>
							</g>
						</g>
					</g>
				</g>
			</g>
			<g>
				<g>
					<g>
						<g>
							<g>
								<g>
									<g>
										<g>
											<g>
												<g>
													<path style="fill:#263238;" d="M573.99,410.039c-0.18,12.492,9.801,22.765,22.292,22.945
														c12.492,0.18,22.766-9.801,22.946-22.293c0.18-12.493-9.802-22.766-22.294-22.946
														C584.443,387.566,574.17,397.547,573.99,410.039z"/>
												</g>
											</g>
										</g>
									</g>
								</g>
							</g>
						</g>
					</g>
				</g>
			</g>
		</g>
		<g>
			<path style="fill:#263238;" d="M662.161,341.463c0.054,0.133-8.062,3.549-18.125,7.628c-10.066,4.08-18.268,7.279-18.322,7.146
				c-0.054-0.133,8.06-3.548,18.126-7.628C653.904,344.529,662.107,341.33,662.161,341.463z"/>
		</g>
		<g>
			<path style="fill:#FFFFFF;" d="M217.518,341.87c-0.002,0.018-0.281,0.016-0.812-0.004c-0.578-0.028-1.35-0.066-2.318-0.113
				c-1.005-0.071-2.237-0.102-3.667-0.132c-0.717-0.019-1.482-0.039-2.29-0.06c-0.813,0.002-1.67,0.003-2.569,0.005
				c-3.601-0.022-7.888,0.155-12.641,0.417c-4.752,0.311-9.967,0.773-15.428,1.396c-10.921,1.287-20.74,2.966-27.812,4.345
				c-3.54,0.674-6.393,1.277-8.365,1.693c-0.95,0.197-1.706,0.353-2.273,0.471c-0.521,0.102-0.797,0.147-0.801,0.13
				c-0.004-0.018,0.263-0.097,0.777-0.232c0.561-0.141,1.311-0.33,2.252-0.566c1.959-0.477,4.804-1.136,8.337-1.857
				c7.061-1.473,16.885-3.212,27.824-4.502c5.469-0.624,10.697-1.073,15.459-1.358c4.765-0.236,9.062-0.375,12.671-0.306
				c0.9,0.011,1.759,0.022,2.574,0.032c0.81,0.035,1.576,0.069,2.294,0.1c1.432,0.058,2.665,0.118,3.67,0.221
				c0.967,0.088,1.737,0.158,2.314,0.211C217.243,341.815,217.52,341.852,217.518,341.87z"/>
		</g>
		<g>
			<path style="fill:#FFFFFF;" d="M295.578,337.984c-0.034,0.085-0.966-0.285-2.532-0.606c-1.562-0.326-3.781-0.522-6.192-0.183
				c-2.41,0.35-4.486,1.16-5.894,1.911c-1.413,0.747-2.204,1.364-2.26,1.292c-0.023-0.028,0.156-0.204,0.503-0.501
				c0.341-0.303,0.879-0.689,1.577-1.112c1.392-0.851,3.516-1.746,6-2.106c2.485-0.35,4.775-0.087,6.349,0.34
				c0.789,0.21,1.414,0.429,1.826,0.625C295.371,337.832,295.592,337.951,295.578,337.984z"/>
		</g>
		<g>
			<path style="fill:#FFFFFF;" d="M389.24,289.713c-0.001,0.018-0.193,0.03-0.558,0.036c-0.423,0.001-0.951,0.002-1.597,0.003
				c-1.386-0.014-3.393-0.018-5.871-0.001c-4.956,0.032-11.801,0.233-19.336,0.845c-7.537,0.619-14.325,1.533-19.22,2.306
				c-2.448,0.385-4.427,0.715-5.792,0.954c-0.637,0.104-1.159,0.188-1.576,0.256c-0.362,0.053-0.553,0.072-0.557,0.055
				c-0.004-0.018,0.181-0.071,0.536-0.158c0.413-0.093,0.928-0.21,1.559-0.352c1.355-0.3,3.326-0.686,5.77-1.118
				c4.887-0.868,11.684-1.841,19.238-2.462c7.552-0.613,14.416-0.757,19.379-0.694c2.482,0.03,4.489,0.09,5.875,0.166
				c0.645,0.038,1.173,0.07,1.596,0.095C389.049,289.672,389.24,289.695,389.24,289.713z"/>
		</g>
		<g>
			<path style="fill:#FFFFFF;" d="M486.724,318.823c0.003,0.008-0.095,0.051-0.288,0.127c-0.221,0.083-0.506,0.19-0.863,0.324
				c-0.796,0.286-1.913,0.687-3.336,1.197c-1.448,0.521-3.226,1.142-5.305,1.816c-2.078,0.68-4.433,1.487-7.069,2.28
				c-5.249,1.656-11.549,3.469-18.587,5.324c-7.047,1.819-14.837,3.658-23.069,5.327c-8.24,1.643-16.138,2.956-23.341,4.002
				c-7.209,1.009-13.72,1.771-19.202,2.272c-2.737,0.287-5.222,0.453-7.4,0.628c-2.179,0.182-4.058,0.295-5.595,0.375
				c-1.509,0.079-2.694,0.141-3.539,0.185c-0.381,0.014-0.685,0.026-0.921,0.035c-0.208,0.005-0.314,0.003-0.315-0.006
				c-0.001-0.009,0.105-0.025,0.312-0.047c0.235-0.022,0.538-0.051,0.918-0.087c0.842-0.067,2.025-0.162,3.531-0.282
				c1.534-0.11,3.41-0.254,5.585-0.463c2.175-0.203,4.655-0.395,7.388-0.705c5.472-0.547,11.972-1.346,19.169-2.38
				c7.192-1.07,15.077-2.397,23.307-4.038c8.222-1.667,16.005-3.49,23.051-5.281c7.036-1.827,13.341-3.601,18.599-5.211
				c2.64-0.77,5.002-1.551,7.087-2.205c2.087-0.648,3.873-1.24,5.33-1.731c1.436-0.471,2.563-0.841,3.366-1.104
				c0.364-0.114,0.655-0.204,0.88-0.275C486.617,318.84,486.721,318.814,486.724,318.823z"/>
		</g>
		<g>
			<path style="fill:#FFFFFF;" d="M579.052,322.635c0.001,0.018-0.218,0.05-0.636,0.096c-0.473,0.045-1.08,0.102-1.831,0.173
				c-1.655,0.153-3.938,0.363-6.732,0.621c-5.68,0.554-13.513,1.468-22.11,2.849c-8.598,1.388-16.323,2.978-21.89,4.235
				c-2.733,0.632-4.967,1.149-6.586,1.523c-0.735,0.168-1.329,0.304-1.793,0.41c-0.411,0.088-0.63,0.126-0.634,0.109
				c-0.005-0.017,0.205-0.089,0.607-0.21c0.457-0.131,1.044-0.298,1.769-0.505c1.538-0.433,3.776-1.012,6.553-1.685
				c5.552-1.35,13.279-3,21.891-4.39c8.611-1.382,16.464-2.241,22.159-2.701c2.847-0.232,5.155-0.385,6.751-0.456
				c0.754-0.031,1.363-0.056,1.838-0.076C578.83,322.615,579.051,322.617,579.052,322.635z"/>
		</g>
		<path style="fill:#263238;" d="M455.744,305.423c0.055,0.014,15.56,7.019,12.749,9.518c-2.811,2.499-12.749,8.91-12.749,8.91
			l35.41-8.859L455.744,305.423z"/>
	</g>
</g>
<g id="Lines">
	<g>
		<g>
			<path style="fill:#263238;" d="M721.708,438.504c0,0.144-8.838,0.26-19.737,0.26c-10.903,0-19.738-0.117-19.738-0.26
				c0-0.144,8.836-0.26,19.738-0.26C712.871,438.243,721.708,438.36,721.708,438.504z"/>
		</g>
		<g>
			<path style="fill:#263238;" d="M709.457,444.629c0,0.144-8.99,0.26-20.077,0.26c-11.091,0-20.079-0.117-20.079-0.26
				s8.988-0.26,20.079-0.26C700.467,444.369,709.457,444.485,709.457,444.629z"/>
		</g>
	</g>
	<g>
		<g>
			<path style="fill:#263238;" d="M354.16,395.729c0,0.144-10.818,0.26-24.16,0.26c-13.347,0-24.163-0.117-24.163-0.26
				s10.816-0.26,24.163-0.26C343.341,395.468,354.16,395.585,354.16,395.729z"/>
		</g>
		<g>
			<path style="fill:#263238;" d="M331.234,403.215c0,0.144-10.361,0.26-23.139,0.26c-12.783,0-23.142-0.117-23.142-0.26
				s10.359-0.26,23.142-0.26C320.873,402.955,331.234,403.071,331.234,403.215z"/>
		</g>
	</g>
</g>
</svg>
